<svg width="1728" height="337" viewBox="0 0 1728 337" fill="none" xmlns="http://www.w3.org/2000/svg">
<path d="M-91.916 413.71C-12.2674 413.521 72.5123 417.428 151.193 407.75C268.972 393.249 380.997 359.15 497.918 341.817C542.438 335.224 584.634 331.412 628.241 342.975C663.771 352.4 695.027 368.944 725.177 385.667C779.116 415.564 836.055 453.906 906.022 456.908C992.047 460.604 1078.71 408.929 1153.03 381.644C1192.01 367.333 1236.86 350.757 1281.28 354.264C1321.57 357.423 1358.65 375.189 1390.75 392.733C1454.06 427.316 1521.41 482.055 1606.21 476.758C1708.98 470.324 1795.95 418.912 1899.65 413.658" stroke="white" stroke-width="1.38499" stroke-miterlimit="10"/>
<path d="M-91.9033 400.387C-13.9281 400.187 69.7036 404.073 146.572 393.953C267.338 378.052 381.494 341.025 501.361 322.059C546.033 314.993 588.104 310.612 631.49 323.734C666.688 334.444 696.686 352.82 725.37 371.185C776.141 403.652 830.701 446.807 901.015 450.44C945.949 452.767 991.133 434.918 1029.94 419.806C1072.99 403.041 1114.39 383.938 1157.43 367.152C1196.98 351.735 1244.01 332.822 1289.92 336.771C1330.5 340.257 1367 359.833 1397.95 378.683C1458.36 415.541 1524.44 476.472 1610.05 470.301C1712.65 462.93 1795.97 406.4 1899.66 400.345" stroke="white" stroke-width="1.38499" stroke-miterlimit="10"/>
<path d="M-91.8887 387.309C-15.3104 387.109 67.4363 391.006 142.825 380.696C265.721 363.9 381.204 324.346 503.077 304.201C547.541 296.829 589.931 292.122 632.874 306.18C668.03 317.69 697.129 337.646 724.776 357.276C773.431 391.806 825.931 438.542 897.101 442.575C943.267 445.166 989.764 425.831 1029.18 409.845C1073.67 391.785 1116.31 371.229 1160.8 353.148C1200.91 336.835 1249.32 316.437 1296.46 320.597C1337.47 324.22 1373.35 345.018 1403.46 364.953C1462 403.695 1526.06 468.997 1613.04 462.415C1715.63 454.654 1795.78 393.586 1899.67 387.352" stroke="white" stroke-width="1.38499" stroke-miterlimit="10"/>
<path d="M-91.8613 374.462C-16.3618 374.294 65.8731 378.264 140.156 368.039C264.089 350.979 379.89 309.351 502.703 288.658C546.559 281.286 589.737 276.484 632.071 290.637C667.518 302.485 696.216 323.514 723.351 343.976C771.232 380.139 822.182 428.749 894.847 432.666C942.036 435.215 988.658 415.68 1028.63 398.968C1074.06 380.012 1117.49 358.403 1162.91 339.427C1203.53 322.451 1252.14 301.726 1300.25 305.854C1341.74 309.414 1377.01 330.591 1406.75 351.379C1464.83 391.975 1525.84 458.93 1614.85 452.411C1717.71 444.882 1795.43 380.054 1899.76 374.483" stroke="white" stroke-width="1.38499" stroke-miterlimit="10"/>
<path d="M-91.8486 361.826C-16.6257 361.468 65.3464 365.933 139.311 355.508C262.4 338.121 376.722 295.251 498.566 274.073C542.298 266.481 585.448 261.931 627.755 275.916C663.714 287.826 692.979 309.109 720.515 329.823C769.281 366.512 820.771 415.744 894.389 420.335C941.91 423.294 988.256 404.002 1028.4 387.026C1073.91 367.776 1117.25 345.746 1162.74 326.485C1203.55 309.193 1251.92 288.753 1300.39 293.176C1342.16 296.988 1377.22 318.208 1407.01 339.227C1465.33 380.392 1525.18 446.462 1614.89 440.323C1718.04 433.288 1794.96 366.691 1899.71 361.826" stroke="white" stroke-width="1.38499" stroke-miterlimit="10"/>
<path d="M-91.8359 349.472C-16.2949 348.819 65.4283 354.453 139.655 343.301C260.56 325.136 372.309 281.559 491.927 259.634C536.184 251.515 578.2 247.292 621.116 261.372C657.724 273.366 688.026 294.428 716.572 314.963C766.956 351.252 820.617 400.978 894.236 407.244C941.466 411.267 987.978 391.922 1027.78 374.957C1072.73 355.801 1115.42 333.75 1160.36 314.573C1201.09 297.187 1249.45 276.905 1297.86 282.159C1339.5 286.677 1375.07 308.202 1405.28 328.99C1463.91 369.323 1525.48 434.15 1614.12 428.19C1717.51 421.229 1794.68 354.253 1899.68 349.472" stroke="white" stroke-width="1.38499" stroke-miterlimit="10"/>
<path d="M-91.8047 337.33C-15.8349 336.551 65.667 343.754 140.351 331.949C258.793 313.225 367.624 269.08 484.725 246.65C529.355 238.078 570.39 234.255 613.789 248.156C650.965 260.066 682.484 280.58 712.095 300.957C764.166 336.762 820.303 386.309 893.852 394.091C940.654 399.051 986.806 380.107 1026.25 363.215C1070.44 344.26 1112.23 322.345 1156.39 303.4C1197 285.982 1244.91 266.279 1293.09 272.282C1334.78 277.484 1370.98 299.104 1401.87 319.67C1461.27 359.161 1524.86 422.367 1612.82 416.49C1716.67 409.561 1794.27 342.154 1899.73 337.394" stroke="white" stroke-width="1.38499" stroke-miterlimit="10"/>
<path d="M-91.7793 325.42C-15.284 324.673 66.1765 333.782 141.386 321.377C257.117 302.305 362.781 257.708 477.13 234.887C521.94 225.947 562.2 222.587 605.959 236.088C643.799 247.756 676.493 267.68 707.252 287.689C761.494 322.851 819.595 371.682 893.352 380.897C939.601 386.668 984.937 368.544 1023.99 351.769C1067.21 333.192 1107.94 311.467 1151.14 292.87C1191.59 275.441 1238.57 256.718 1286.46 263.384C1328.34 269.228 1365.3 290.764 1397.11 311.046C1457.7 349.662 1523.56 410.93 1611.05 405.086C1715.54 398.104 1793.73 330.244 1899.82 325.452" stroke="white" stroke-width="1.38499" stroke-miterlimit="10"/>
<path d="M-91.7646 313.742C-14.647 313.152 66.7858 324.452 142.673 311.509C255.5 292.27 357.803 247.272 469.206 224.325C513.988 215.079 553.695 212.204 597.675 225.115C636.193 236.425 670.035 255.654 702.053 275.052C758.757 309.414 818.628 357.076 892.662 367.617C982.005 380.349 1072.29 314.089 1144.69 282.855C1184.99 265.458 1230.7 248.03 1278.18 255.328C1320.39 261.825 1358.12 283.15 1391.02 303.127C1453.15 340.838 1521.47 399.915 1608.74 394.039C1714 386.962 1792.94 318.607 1899.8 313.742" stroke="white" stroke-width="1.38499" stroke-miterlimit="10"/>
<path d="M-91.7373 302.304C-13.9419 301.978 67.5047 315.699 144.18 302.304C253.978 283.054 352.754 237.845 461.059 214.825C505.69 205.347 545.009 202.988 589.114 215.151C628.337 225.987 663.355 244.364 696.631 263.151C755.797 296.533 817.452 342.605 891.859 354.453C979.847 368.437 1066.25 304.094 1137.31 273.365C1176.6 256.4 1222.4 239.298 1268.58 248.039C1311.46 256.148 1349.23 275.809 1384 295.817C1447.91 332.57 1518.86 389.257 1606.12 383.317C1712.29 376.104 1792.07 307.232 1899.82 302.23" stroke="white" stroke-width="1.38499" stroke-miterlimit="10"/>
<path d="M-91.71 291.089C-13.1816 291.089 68.348 307.444 145.881 293.553C252.554 274.44 347.706 229.042 452.816 206.148C635.376 166.352 730.611 313.267 890.974 341.384C977.413 356.559 1059.44 294.533 1129.21 264.425C1168.33 247.576 1212.36 232.233 1257.96 241.468C1301.37 250.261 1340.03 269.491 1376.2 289.12C1442.1 324.925 1515.8 379.032 1603.25 372.998C1710.39 365.626 1791.12 296.218 1899.87 291.089" stroke="white" stroke-width="1.38499" stroke-miterlimit="10"/>
<path d="M-91.6807 280.117C-12.3916 280.559 69.2763 299.598 147.735 285.298C251.228 266.437 342.743 220.933 444.575 198.24C623.359 158.412 732.245 298.282 890.021 328.411C974.967 344.649 1052.07 285.371 1120.57 255.843C1159.52 239.057 1201.63 225.736 1246.58 235.392C1290.57 244.87 1330.21 263.615 1367.83 282.833C1435.85 317.585 1512.36 369.091 1600.18 362.92C1708.37 355.327 1790.11 285.413 1899.91 280.117" stroke="white" stroke-width="1.38499" stroke-miterlimit="10"/>
<path d="M-91.6533 269.374C-11.5759 270.269 70.2579 292.089 149.699 277.43C250.024 258.917 337.791 213.361 436.47 190.972C611.465 151.261 733.821 283.485 889.039 315.625C972.463 332.896 1044.33 276.535 1111.62 247.586C1150.43 230.895 1190.46 219.711 1234.71 229.684C1279.32 239.783 1319.98 258.117 1359.09 276.861C1429.29 310.56 1508.62 359.381 1596.89 353.073C1706.15 345.248 1788.96 274.808 1899.85 269.332" stroke="white" stroke-width="1.38499" stroke-miterlimit="10"/>
<path d="M-91.626 258.865C-10.7741 260.223 71.2948 284.833 151.787 269.869C249.014 251.777 333.158 206.2 428.656 184.191C599.93 144.711 735.37 268.995 888.043 303.062C969.959 321.344 1036.43 267.984 1102.58 239.593C1141.22 223.007 1179.29 214.025 1222.82 224.355C1268.04 235.097 1309.77 252.967 1350.35 271.249C1422.75 303.894 1504.87 350.019 1593.69 343.553C1704.1 335.508 1787.94 264.572 1899.94 258.865" stroke="white" stroke-width="1.38499" stroke-miterlimit="10"/>
<path d="M-91.6006 248.598C-10.0019 250.41 72.3437 277.748 153.763 262.531C248.002 244.913 328.591 199.346 421.047 177.768C588.933 138.594 736.931 254.79 887.128 290.764C967.551 310.035 1028.61 259.677 1093.68 231.791C1132.16 215.311 1168.37 208.529 1211.06 219.154C1256.91 230.549 1299.69 248.009 1341.72 265.785C1416.25 297.314 1501.11 340.837 1590.54 334.235C1702.05 325.968 1786.93 254.453 1900.02 248.619" stroke="white" stroke-width="1.38499" stroke-miterlimit="10"/>
<path d="M-91.5732 238.552C-9.15854 240.795 73.3806 270.755 155.795 255.327C247.2 238.215 324.387 192.68 413.965 171.566C578.629 132.749 738.465 240.879 886.145 278.758C965.227 299.041 1020.82 251.473 1085 224.146C1123.35 207.823 1157.66 203.084 1199.64 214.015C1246.08 226.062 1289.89 243.175 1333.29 260.435C1409.87 290.879 1497.35 331.844 1587.4 325.073C1699.96 316.596 1785.83 244.565 1899.96 238.552" stroke="white" stroke-width="1.38499" stroke-miterlimit="10"/>
<path d="M-91.5439 228.748C-8.35475 231.36 74.4195 263.784 157.761 248.199C246.551 231.602 320.543 186.067 407.439 165.448C491.735 145.439 581.41 168.028 660.146 192.164C736.074 215.448 808.255 245.987 885.317 267.101C963.403 288.5 1013.21 243.175 1076.89 216.554C1161.47 181.223 1248.09 226.031 1325.49 255.086C1403.93 284.488 1493.86 323.009 1584.51 316.091C1698.07 307.434 1784.88 234.898 1900.02 228.738" stroke="white" stroke-width="1.38499" stroke-miterlimit="10"/>
<path d="M-91.5166 219.163C-7.55292 222.08 75.2352 256.748 159.641 241.046C246.067 224.955 317.113 179.452 401.672 159.285C485.193 139.34 577.233 161.002 656.342 183.106C733.806 204.757 807.535 233.348 884.584 255.842C961.632 278.336 1006.64 235.233 1069.51 208.991C1152.16 174.502 1242.39 222.681 1318.45 249.692C1398.53 278.125 1490.75 314.309 1581.89 307.296C1696.34 298.481 1784.01 225.461 1899.99 219.163" stroke="white" stroke-width="1.38499" stroke-miterlimit="10"/>
<path d="M-91.4893 209.824C-6.73724 212.984 75.9817 249.589 161.37 233.793C245.735 218.196 314.167 172.714 396.485 152.937C479.37 133.087 573.513 153.864 652.981 174.136C731.814 194.26 807.023 221.135 883.947 245.008C920.238 256.265 946.834 256.729 981.921 242.207C1010.44 230.402 1034.56 213.258 1063.04 201.368C1101.03 185.488 1131.29 185.93 1171.08 197.735C1218.89 211.941 1265.47 228.274 1312.38 244.144C1393.8 271.609 1488.03 305.686 1579.58 298.61C1694.82 289.701 1783.22 216.196 1900.03 209.824" stroke="white" stroke-width="1.38499" stroke-miterlimit="10"/>
<path d="M-91.4619 200.705C-5.92157 203.864 76.5485 242.217 162.932 226.369C245.624 211.194 311.719 165.543 392.377 146.271C474.833 126.568 570.705 146.482 650.492 165.227C730.279 183.972 806.885 209.456 883.56 234.73C918.993 246.409 944.897 248.062 979.68 233.614C1007.26 222.156 1030.27 205.244 1057.78 193.702C1095.56 177.843 1125.35 179.528 1164.45 191.722C1212.5 206.708 1259.8 223.009 1307.6 238.437C1390.04 265.038 1486.1 297.22 1577.8 290.122C1693.67 281.16 1782.67 207.213 1900.04 200.8" stroke="white" stroke-width="1.38499" stroke-miterlimit="10"/>
<path d="M-91.4326 191.838C-5.09012 194.913 76.9097 234.593 164.262 218.702C245.722 203.864 309.756 157.865 389.294 139.163C471.64 119.776 568.549 138.784 648.834 156.191C729.769 173.725 807.038 198.146 883.395 224.81C918.109 236.92 943.723 239.468 978.244 225.02C1005.07 213.805 1027.16 196.998 1053.91 185.677C1091.51 169.765 1121.28 172.345 1159.78 185.003C1207.9 200.799 1255.75 217.143 1304.28 232.244C1387.26 258.076 1484.93 288.595 1576.56 281.549C1692.88 272.598 1782.31 198.23 1900.18 191.838" stroke="white" stroke-width="1.38499" stroke-miterlimit="10"/>
<path d="M-91.4053 183.191C-4.27445 185.982 77.02 226.62 165.34 210.687C245.957 196.144 308.608 149.945 387.192 131.464C469.275 112.171 567.456 130.769 647.948 147.092C729.713 163.678 807.328 187.435 883.326 215.542C917.473 228.179 943.225 231.232 977.565 216.689C1003.84 205.558 1025.24 188.741 1051.47 177.504C1088.94 161.456 1119.12 164.488 1157.17 177.726C1205.18 194.427 1253.4 210.887 1302.47 225.735C1385.7 250.915 1484.5 280.064 1575.75 273.124C1692.36 264.268 1782 189.499 1900.16 183.191" stroke="white" stroke-width="1.38499" stroke-miterlimit="10"/>
<path d="M-91.3652 174.766C-3.79184 177.272 76.9355 218.353 165.795 202.272C246.135 187.74 308.413 141.584 386.748 123.207C468.748 103.978 567.371 122.955 647.891 138.93C729.946 155.21 807.313 178.789 883.407 207.022C917.43 219.659 943.541 222.292 977.647 207.843C1003.74 196.786 1025 180.116 1051.1 169.027C1088.44 153.167 1119.17 156.116 1156.86 169.732C1204.67 187.003 1252.94 203.589 1302.22 218.29C1385.05 243.006 1485.14 271.828 1575.68 264.625C1692.12 255.379 1782.35 181.874 1900.2 174.798" stroke="white" stroke-width="1.38499" stroke-miterlimit="10"/>
<path d="M-91.3379 166.479C-3.57086 168.859 76.9214 210.213 165.989 193.943C246.204 179.284 308.8 133.517 387.19 115.257C469.19 96.154 567.593 115.962 647.988 132.043C729.78 148.408 806.815 171.944 883.435 198.84C955.961 224.293 991.906 185.15 1051.64 160.739C1088.98 145.48 1119.91 148.26 1157.25 161.929C1204.85 179.358 1253.04 195.902 1302.3 210.434C1384.64 234.718 1486.03 263.678 1575.93 255.864C1691.87 245.775 1783.21 175.261 1900.27 166.637" stroke="white" stroke-width="1.38499" stroke-miterlimit="10"/>
<path d="M-91.3086 158.317C-3.2788 160.613 77.0199 202.273 166.364 185.866C246.579 171.123 309.424 125.84 387.856 107.748C469.855 88.793 567.967 109.36 648.238 125.493C729.713 141.868 806.457 165.299 883.519 190.836C955.437 214.678 992.668 176.23 1052.44 152.925C1089.78 138.33 1120.99 141.026 1158 154.716C1205.38 172.239 1253.42 188.656 1302.67 202.936C1384.69 226.725 1487.09 255.38 1576.24 247.039C1691.6 236.256 1784.05 168.806 1900.25 158.812" stroke="white" stroke-width="1.38499" stroke-miterlimit="10"/>
<path d="M-91.2812 150.304C-2.94718 152.537 77.227 194.534 166.903 178.053C247.021 163.331 310.24 118.565 388.727 100.662C470.726 82.0227 568.52 103.105 648.639 119.249C729.726 135.572 806.305 158.824 883.644 182.95C955.049 205.201 993.553 167.606 1053.48 145.386C1090.92 131.517 1122.35 134.213 1159.09 147.893C1206.21 165.448 1254.16 181.676 1303.32 195.618C1385.13 218.839 1488.15 246.787 1576.69 238.015C1691.48 226.652 1785.01 162.373 1900.32 151.147" stroke="white" stroke-width="1.38499" stroke-miterlimit="10"/>
<path d="M-91.2539 142.427C-2.54643 144.639 77.4757 186.962 167.608 170.471C247.657 155.833 311.263 111.572 389.819 94.0276C471.791 75.7146 569.087 97.2711 649.178 113.362C729.823 129.58 806.166 152.589 883.823 175.262C954.689 195.955 994.548 159.35 1054.75 138.331C1092.31 125.209 1124 128 1160.5 141.637C1207.25 159.281 1255.22 174.981 1304.21 188.668C1385.95 211.246 1489.26 238.162 1577.29 228.99C1691.33 217.164 1786 156.128 1900.31 143.838" stroke="white" stroke-width="1.38499" stroke-miterlimit="10"/>
<path d="M-91.2139 134.697C-2.1053 136.909 77.8891 179.6 168.464 163.13C248.444 148.608 312.478 104.937 391.131 87.7508C473.076 69.8485 569.957 91.742 649.896 107.759C730.112 123.808 806.248 146.502 884.084 167.701C954.425 186.867 995.723 151.346 1056.29 131.601C1094.03 119.291 1125.95 122.239 1162.24 135.813C1208.71 153.34 1256.51 168.746 1305.38 181.949C1387.16 203.821 1490.46 229.274 1578.02 219.86C1691.33 207.675 1787.08 149.977 1900.39 136.729" stroke="white" stroke-width="1.38499" stroke-miterlimit="10"/>
<path d="M-91.1836 127.136C-1.61863 129.358 78.3619 172.419 169.448 156.075C249.373 141.732 313.864 98.6925 392.545 81.917C474.448 64.4569 570.817 86.6137 650.687 102.494C730.308 118.29 806.416 140.626 884.336 160.319C954.179 177.979 996.997 143.669 1057.98 125.262C1095.93 113.804 1128.09 116.974 1164.23 130.527C1210.39 147.887 1257.97 162.946 1306.69 175.609C1388.6 196.671 1491.58 220.428 1578.77 210.793C1691.29 198.366 1788.08 144.07 1900.36 130.011" stroke="white" stroke-width="1.38499" stroke-miterlimit="10"/>
<path d="M-91.1562 119.723C-1.0934 121.997 78.9563 165.469 170.568 149.209C250.438 135.119 315.399 92.764 394.162 76.4413C476.01 59.4867 571.854 81.8015 651.544 97.5029C730.612 113.088 806.637 134.919 884.585 153.095C953.943 169.26 998.366 136.246 1059.8 119.249C1097.99 108.718 1130.4 112.13 1166.43 125.567C1212.28 142.721 1259.66 157.378 1308.23 169.428C1390.41 189.679 1492.81 211.425 1579.68 201.621C1691.39 188.984 1789.17 138.215 1900.41 123.43" stroke="white" stroke-width="1.38499" stroke-miterlimit="10"/>
<path d="M-91.1289 112.476C-0.526675 114.814 79.5092 158.706 171.799 142.668C251.613 128.788 317.086 87.1495 395.932 71.3322C477.711 54.9358 572.96 77.3242 652.54 92.8256C731.054 108.127 807.01 129.41 884.889 146.048C953.777 160.791 999.901 129.125 1061.82 113.592C1100.27 103.957 1132.93 107.737 1168.88 120.964C1214.41 137.857 1261.57 152.067 1309.95 163.466C1392.45 182.79 1494.02 202.293 1580.64 192.373C1691.51 179.736 1790.22 132.453 1900.41 117.057" stroke="white" stroke-width="1.38499" stroke-miterlimit="10"/>
<path d="M-91.1016 105.41C0.0677056 107.832 80.1866 152.145 173.057 136.328C252.913 122.775 318.897 81.8521 397.841 66.5825C479.536 50.7863 574.122 73.1642 653.701 88.4339C731.635 103.409 807.535 124.081 885.331 139.171C953.749 152.451 1001.67 122.259 1064.1 108.263C1102.83 99.586 1135.73 103.735 1171.65 116.899C1216.84 133.496 1263.77 147.208 1311.94 157.895C1394.76 176.229 1495.3 193.331 1581.73 183.295C1691.73 170.585 1791.33 126.987 1900.46 111.065" stroke="white" stroke-width="1.38499" stroke-miterlimit="10"/>
<path d="M-91.0723 98.5559C0.664049 101.052 80.8797 145.786 174.566 130.233C254.298 116.985 320.835 76.8625 399.862 62.172C481.46 46.9972 575.396 69.3224 654.795 84.2867C732.162 98.9034 808.007 118.891 885.637 132.444C953.626 144.323 1003.44 115.595 1066.36 103.211C1105.36 95.5125 1138.52 100.051 1174.45 113.12C1219.31 129.385 1265.98 142.562 1313.92 152.495C1397.27 169.765 1496.58 184.192 1582.86 174.177C1692.01 161.541 1792.39 121.608 1900.49 105.232" stroke="white" stroke-width="1.38499" stroke-miterlimit="10"/>
<path d="M-91.0449 91.8151C1.35524 94.4583 81.7231 139.625 176.073 124.366C255.791 111.487 322.909 72.1647 401.991 58.085C483.521 43.5841 576.751 65.783 656.04 80.4945C732.825 94.7427 808.615 113.972 886.037 125.988C953.626 136.518 1005.41 109.338 1068.79 98.6075C1108.08 91.9204 1141.5 96.9436 1177.48 109.833C1222 125.734 1268.41 138.341 1316.09 147.481C1399.96 163.614 1497.88 175.272 1584.05 165.246C1692.34 152.662 1793.44 116.541 1900.52 99.7869" stroke="white" stroke-width="1.38499" stroke-miterlimit="10"/>
<path d="M-91.0176 85.2969C2.04644 88.077 82.5525 133.675 177.691 118.753C257.34 106.253 324.998 67.7631 404.217 54.3259C485.636 40.5095 578.147 62.5504 657.312 76.9354C733.544 90.7834 809.237 109.202 886.41 119.68C953.653 128.81 1007.44 103.273 1071.31 94.1427C1110.88 88.4877 1144.53 94.0058 1180.64 106.78C1224.8 122.285 1270.95 134.283 1318.34 142.584C1402.71 157.496 1499.13 166.258 1585.27 156.274C1692.72 143.838 1794.45 111.529 1900.54 94.4376" stroke="white" stroke-width="1.38499" stroke-miterlimit="10"/>
<path d="M-90.9902 78.9796C2.72381 81.9071 83.4374 127.937 179.309 113.373C258.971 101.273 327.196 63.6362 406.513 50.8624C487.821 37.7726 579.599 59.5924 658.708 73.6405C734.401 87.0883 809.984 104.622 886.908 113.573C953.861 121.355 1009.69 97.4822 1074.02 90.0369C1113.88 85.4139 1147.76 91.4586 1184.01 104.043C1227.83 119.147 1273.71 130.526 1320.81 137.973C1405.74 151.589 1500.52 157.36 1586.62 147.451C1693.12 135.172 1795.46 106.76 1900.57 89.384" stroke="white" stroke-width="1.38499" stroke-miterlimit="10"/>
<path d="M-90.9629 72.86C3.42883 75.9456 84.3498 122.355 181.01 108.233C260.672 96.5543 329.464 59.7703 408.878 47.6915C490.075 35.3704 581.106 56.9164 660.119 70.6065C735.3 83.633 810.744 100.23 887.336 107.664C954.054 114.141 1011.92 91.9629 1076.66 86.2025C1116.77 82.6326 1150.91 89.2249 1187.3 101.651C1230.78 116.325 1276.38 127.053 1323.16 133.612C1408.63 145.859 1501.73 148.587 1587.84 138.751C1693.56 126.683 1796.3 102.199 1900.5 84.5703" stroke="white" stroke-width="1.38499" stroke-miterlimit="10"/>
<path d="M-90.9336 66.9636C4.14965 70.207 85.3058 117.09 182.74 103.337C262.389 92.0795 331.789 56.18 411.3 44.8489C492.359 33.2651 582.629 54.5688 661.628 67.8797C736.311 80.5167 811.59 96.0917 887.864 102.021C954.456 107.202 1014.3 86.7509 1079.54 82.686C1119.94 80.1692 1154.22 87.3406 1190.95 99.5985C1234.1 113.836 1279.42 123.897 1325.86 129.548C1520.86 154.074 1711.96 112.699 1900.7 80.0533" stroke="white" stroke-width="1.38499" stroke-miterlimit="10"/>
<path d="M-90.9062 61.2548C4.88234 64.6773 86.2736 111.971 184.51 98.6496C264.159 87.845 334.154 52.8407 413.761 42.173C494.682 31.3263 584.192 52.3668 663.024 65.2881C737.279 77.4933 812.336 92.0574 888.265 96.4487C954.844 100.335 1016.57 81.7056 1082.29 79.2835C1122.92 77.8092 1157.5 85.602 1194.44 97.6808C1237.09 111.718 1282.39 120.67 1328.37 125.619C1518.41 146.08 1716.63 108.096 1900.66 75.6715" stroke="white" stroke-width="1.38499" stroke-miterlimit="10"/>
<path d="M-90.8789 55.7799C5.61502 59.3815 87.2552 107.086 186.294 94.2068C265.956 83.8129 336.532 49.7458 416.236 39.7942C497.019 29.7162 585.754 50.4724 664.504 62.9619C738.358 74.7038 813.152 88.2358 888.734 91.195C955.438 93.8066 1018.91 76.9363 1085.12 76.2307C1125.99 75.799 1160.79 84.2025 1198.02 96.1339C1240.4 109.708 1285.39 117.891 1330.99 121.955C1417.85 129.696 1505.94 123.103 1592.09 113.636C1695.46 102.273 1798.97 89.8049 1900.68 71.5129" stroke="white" stroke-width="1.38499" stroke-miterlimit="10"/>
<path d="M-90.8535 50.5239C5.51595 54.2413 87.0455 102.03 185.987 90.2566C265.332 80.7789 336.046 48.0387 415.128 38.1081C495.067 28.0723 582.018 47.986 660.076 60.0122C735.534 71.596 811.974 84.5384 889.216 86.1601C957.787 87.6028 1024.6 71.6592 1093.02 73.5232C1134.32 74.65 1168.74 84.928 1206.59 96.3434C1245.91 108.201 1287.43 114.993 1329.42 118.205C1418.79 125.04 1507.43 114.962 1595.74 105.453C1697.67 94.4794 1800.51 86.0337 1900.75 67.6891" stroke="white" stroke-width="1.38499" stroke-miterlimit="10"/>
<path d="M-90.8389 45.5021C6.19445 49.3985 88.0559 97.5873 187.731 86.2667C267.089 77.2524 338.37 45.3757 417.576 36.1718C497.35 26.9468 583.609 46.5762 661.557 58.2127C736.655 69.4385 812.805 81.3805 889.646 81.3805C958.617 81.3805 1026.91 67.5535 1095.9 71.0814C1137.25 73.1875 1171.96 84.0553 1210.11 95.2284C1249.16 106.665 1290.41 112.741 1332.04 115.142C1421.7 120.313 1508.8 107.012 1597.09 97.7664C1698.36 87.1619 1801.19 82.6442 1900.72 64.0678" stroke="white" stroke-width="1.38499" stroke-miterlimit="10"/>
<path d="M-90.8096 40.7187C6.95675 44.7941 88.9842 93.3727 189.503 82.4944C268.889 73.9012 340.723 42.9197 420.04 34.4318C499.647 25.8914 585.229 45.3839 663.135 56.6413C737.818 67.4564 813.678 78.3242 890.118 76.7867C959.587 75.3861 1029.22 63.6337 1098.79 68.8043C1140.2 71.8898 1175.19 83.3368 1213.58 94.2678C1252.31 105.294 1293.35 110.654 1334.6 112.244C1424.49 115.73 1510.16 99.2699 1598.42 90.2766C1699.05 80.0196 1801.73 79.451 1900.68 60.643" stroke="white" stroke-width="1.38499" stroke-miterlimit="10"/>
<path d="M-90.7822 36.1811C7.66178 40.3934 90.035 89.3826 191.259 78.9571C270.659 70.7747 343.046 40.6356 422.487 32.906C501.929 25.1764 586.819 44.4056 664.518 55.2734C739.021 65.6989 814.521 75.5452 890.546 72.4597C960.624 69.6163 1031.45 59.9701 1101.6 66.7625C1143.09 70.7747 1178.33 82.843 1217.08 93.5212C1255.83 104.199 1296.35 108.791 1337.21 109.591C1427.11 111.371 1511.64 91.8258 1599.8 83.0852C1699.85 73.1652 1802.45 76.5351 1900.74 57.4533" stroke="white" stroke-width="1.38499" stroke-miterlimit="10"/>
<path d="M-90.7695 31.8845C8.35215 36.3075 91.0158 85.5916 192.959 75.6505C272.4 67.8682 345.313 38.6453 424.865 31.5686C504.085 24.5235 588.45 43.6264 666.01 54.1256C740.293 64.1719 815.377 72.9862 891.029 68.3843C961.799 64.0772 1033.67 56.5266 1104.44 64.9091C1145.81 69.8164 1181.46 82.5166 1220.49 92.9526C1258.8 103.188 1299.33 107.127 1339.74 107.159C1429.64 107.243 1513.09 84.707 1601.13 76.1981C1700.71 66.573 1803.05 73.8708 1900.74 54.4836" stroke="white" stroke-width="1.38499" stroke-miterlimit="10"/>
<path d="M-90.7549 27.8524C9.03066 32.4228 91.9433 82.1176 194.619 72.5556C274.102 65.184 347.541 36.7509 427.189 30.4325C506.326 24.114 589.847 43.0694 667.422 53.2C741.552 62.8462 816.263 70.6706 891.472 64.5733C963.002 58.7813 1035.81 53.3264 1107.22 63.2674C1148.58 69.0067 1184.54 82.3492 1223.86 92.543C1261.99 102.421 1302.16 105.654 1342.2 104.938C1431.96 103.348 1514.54 77.9263 1602.46 69.6175C1701.47 60.2662 1803.55 71.492 1900.78 51.7152" stroke="white" stroke-width="1.38499" stroke-miterlimit="10"/>
<path d="M-90.7275 24.0702C9.68036 28.7985 92.8834 78.8303 196.237 69.6895C275.761 62.6445 349.753 35.1275 429.443 29.4093C508.414 23.7437 591.258 42.6676 668.791 52.4191C742.783 61.6967 817.12 68.5417 891.901 60.9806C964.233 53.6722 1037.93 50.2813 1109.85 61.7493C1151.16 68.3311 1187.43 82.3054 1227.09 92.2886C1264.99 101.766 1304.96 104.378 1344.65 102.935C1434.17 99.7023 1516.05 71.5219 1603.81 63.3921C1702.36 54.262 1804.13 69.3842 1900.89 49.2177" stroke="white" stroke-width="1.38499" stroke-miterlimit="10"/>
<path d="M-90.7129 20.5533C10.2482 25.4291 93.7555 75.8189 197.773 67.0468C277.339 60.3281 351.746 33.6431 431.616 28.5567C510.448 23.5441 592.683 42.4363 670.091 51.8508C743.987 60.8547 817.951 66.6676 892.289 57.6744C965.465 48.8285 1039.83 47.4595 1112.37 60.4124C1153.6 67.7839 1190.21 82.3901 1230.13 92.1416C1267.84 101.346 1307.58 103.252 1346.86 101.124C1436.07 96.2907 1517.38 65.5093 1604.98 57.4848C1703.17 48.5231 1804.53 67.5206 1900.86 46.8698" stroke="white" stroke-width="1.38499" stroke-miterlimit="10"/>
<path d="M-90.6982 17.3206C10.8991 22.3121 94.6277 73.0389 199.226 64.6143C278.861 58.2116 353.724 32.3164 433.677 27.8513C512.385 23.46 593.984 42.3522 671.323 51.4719C745.149 60.1809 818.754 65.025 892.677 54.6311C966.6 44.2372 1041.7 44.848 1114.81 59.2331C1155.94 67.3313 1192.9 82.4008 1233.05 92.1102C1270.4 101.156 1310.2 102.293 1348.99 99.4817C1437.84 93.1633 1518.69 59.8965 1606.11 51.9774C1703.88 43.121 1804.95 65.9623 1900.86 44.7533" stroke="white" stroke-width="1.38499" stroke-miterlimit="10"/>
<path d="M-90.6182 14.308C11.5324 19.4049 95.4407 70.4687 200.662 62.3705C280.269 56.2732 355.575 31.1572 435.624 27.2714C514.153 23.4592 595.226 42.4147 672.482 51.271C746.267 59.6957 819.526 63.6237 893.02 51.8608C967.897 39.8873 1043.44 42.3831 1117.07 58.1792C1158.12 66.9619 1195.41 82.6001 1235.79 92.1726C1272.98 100.987 1312.58 101.492 1350.97 98.112C1392.86 94.4157 1433.7 85.9489 1473.92 76.5555C1517.32 66.4354 1561.98 50.9972 1607.19 46.9113C1704.62 38.097 1805.35 64.7294 1900.87 42.8885" stroke="white" stroke-width="1.38499" stroke-miterlimit="10"/>
<path d="M-90.6182 11.6757C12.0302 16.8568 96.0908 68.247 201.92 60.4227C281.596 54.5254 357.303 30.1045 437.45 26.7979C515.854 23.5228 596.346 42.5941 673.533 51.2293C747.318 59.4644 820.286 62.4656 893.352 49.3759C969.045 35.8122 1045.08 40.1193 1119.26 57.2845C1160.12 66.7622 1197.73 82.8743 1238.32 92.3099C1275.36 100.914 1314.77 100.85 1352.79 96.8908C1394.6 92.5521 1435.21 83.3482 1475.19 73.3545C1518.27 62.592 1563 46.3535 1608.2 42.236C1705.33 33.4007 1805.74 63.7715 1900.89 41.1829" stroke="white" stroke-width="1.38499" stroke-miterlimit="10"/>
<path d="M-90.6182 9.2854C12.5005 14.5508 96.7823 66.2464 203.068 58.6537C282.8 52.946 358.866 29.2623 439.082 26.4295C517.375 23.6599 597.328 42.9523 674.46 51.3664C748.258 59.4014 820.964 61.5602 893.601 47.1541C970.165 32.0214 1046.55 38.0239 1121.25 56.5054C1161.96 66.5729 1199.84 83.1799 1240.64 92.5102C1277.53 100.935 1316.71 100.345 1354.45 95.8695C1396.17 90.9201 1436.56 81.0211 1476.34 70.4798C1519.13 59.1381 1563.91 42.1836 1609.11 38.0029C1705.92 29.0517 1806.1 63.1188 1900.93 39.7194" stroke="white" stroke-width="1.38499" stroke-miterlimit="10"/>
<path d="M-90.6182 7.18945C12.9292 12.4548 97.3493 64.5085 204.091 57.0948C283.92 51.5451 360.374 28.5143 440.672 26.1449C518.883 23.8281 598.338 43.4048 675.386 51.6504C749.212 59.538 821.711 60.8965 893.905 45.2582C971.258 28.5038 1047.84 36.0859 1123.06 55.789C1163.64 66.4357 1201.77 83.4745 1242.73 92.7205C1279.49 101.008 1318.54 99.9551 1355.92 95.0057C1397.58 89.4875 1437.75 78.9568 1477.35 67.91C1519.91 56.0207 1564.72 38.4869 1609.97 34.2114C1706.59 25.0707 1806.51 62.7499 1900.93 38.4238" stroke="white" stroke-width="1.38499" stroke-miterlimit="10"/>
<path d="M-90.6182 5.39966C13.3303 10.6651 97.8334 63.0452 204.99 55.7473C284.833 50.3135 361.632 27.8934 442 25.8926C520.127 23.9865 599.057 43.9107 676.105 52.0405C749.973 59.8333 822.333 60.4651 894.112 43.6159C972.267 25.2607 1048.89 34.2751 1124.66 55.1997C1165.06 66.3624 1203.41 83.7908 1244.53 92.9737C1281.18 101.167 1320.03 99.7134 1357.15 94.3427C1398.75 88.3085 1438.75 77.2091 1478.18 65.6989C1520.54 53.3253 1565.31 35.3387 1610.69 30.9473C1707.1 21.5223 1806.9 62.7503 1900.94 37.3501" stroke="white" stroke-width="1.38499" stroke-miterlimit="10"/>
<path d="M-90.6182 3.90576C12.8186 9.17115 97.045 61.5513 203.58 54.7589C287.765 49.3988 369.142 25.1885 454.088 25.6834C526.711 26.1047 599.582 44.2703 671.32 52.0841C747.539 60.3824 820.494 60.1507 894.306 42.3853C976.154 22.7348 1052.84 33.0655 1131.73 56.4333C1167.09 66.9009 1200.79 81.1807 1236.41 90.9848C1274.11 101.358 1315.51 100.347 1354.3 94.5864C1398.32 88.0573 1440.46 75.6309 1481.98 62.994C1523.83 50.2096 1568.33 32.2125 1613.45 28.0002C1708.88 19.1438 1808.13 62.8676 1900.93 36.4985" stroke="white" stroke-width="1.38499" stroke-miterlimit="10"/>
<path d="M-90.6182 2.72522C13.109 7.9169 97.3355 60.6445 204.161 53.8417C288.373 48.471 370.124 24.8293 455.042 25.6191C527.61 26.3037 600.108 44.9747 671.804 52.7991C748.078 61.1184 821.019 60.297 894.472 41.3732C977.149 20.0589 1053.44 31.6006 1132.98 56.1163C1168.17 66.963 1201.96 81.3691 1237.68 91.1838C1275.3 101.567 1316.52 100.346 1355.09 94.2588C1399.08 87.319 1441.06 74.3556 1482.45 61.3817C1524.25 48.2814 1568.73 30.0842 1613.97 25.6613C1709.21 16.4152 1808.57 63.4141 1900.94 35.7708" stroke="white" stroke-width="1.38499" stroke-miterlimit="10"/>
<path d="M-90.6182 1.88281C13.3165 6.99024 97.4738 60.0338 204.603 53.1256C288.83 47.6917 370.76 24.5556 455.789 25.5981C528.329 26.4827 600.481 45.7541 672.15 53.6416C748.466 62.0662 821.517 60.7288 894.5 40.6677C977.979 17.7316 1053.66 30.2422 1133.87 55.7899C1168.99 66.9631 1202.86 81.5166 1238.61 91.4471C1276.2 101.883 1317.06 100.567 1355.6 94.1957C1444.65 79.4526 1524.44 33.2961 1614.35 23.9869C1709.44 14.1406 1809.06 64.3093 1900.94 35.2759" stroke="white" stroke-width="1.38499" stroke-miterlimit="10"/>
<path d="M-90.6182 1.34644C13.4824 6.34856 97.6121 59.708 204.866 52.6314C289.106 47.0606 371.314 24.3773 456.301 25.5883C528.854 26.6414 600.689 46.5867 672.33 54.6111C748.673 63.1621 821.974 61.4351 894.541 40.2893C978.754 15.742 1053.59 28.9792 1134.57 55.5589C1169.39 66.9638 1203.34 82.0754 1239.18 91.6163C1277.24 101.736 1316.86 100.915 1355.82 94.2595C1445.03 79.011 1524.37 32.8124 1614.6 22.8292C1709.56 12.2985 1809.61 65.5316 1900.89 34.9607" stroke="white" stroke-width="1.38499" stroke-miterlimit="10"/>
<path d="M-90.6182 1.14526C13.5931 5.99996 97.5706 59.6754 204.935 52.3354C289.175 46.5751 371.493 24.2709 456.646 25.5767C529.214 26.6929 600.772 47.4807 672.399 55.6947C748.742 64.4458 822.43 62.4344 894.569 40.225C979.431 14.0771 1053.22 27.7881 1134.97 55.3788C1209.65 80.5684 1271.18 109.244 1355.75 94.4796C1445.19 78.8625 1524.16 33.0535 1614.71 22.27C1709.56 10.9705 1810.13 67.0785 1901 34.907" stroke="white" stroke-width="1.38499" stroke-miterlimit="10"/>
</svg>
