<?xml version="1.0" encoding="utf-8"?>
<!-- Generator: Adobe Illustrator 26.0.1, SVG Export Plug-In . SVG Version: 6.00 Build 0)  -->
<svg version="1.1" xmlns="http://www.w3.org/2000/svg" xmlns:xlink="http://www.w3.org/1999/xlink" x="0px" y="0px"
	 viewBox="0 0 500 500" style="enable-background:new 0 0 500 500;" xml:space="preserve">
<style type="text/css">
	.st0{display:none;}
	.st1{display:inline;fill:#6696FF;}
	.st2{fill:#FFFFFF;}
	.st3{fill:#FFD715;}
	.st4{fill:#FFCC01;}
	.st5{fill:#FCBD11;}
	.st6{fill:#FFDB53;}
	.st7{fill:#E69A24;}
	.st8{fill:#FEBA89;}
	.st9{fill:#FD945D;}
	.st10{fill:#2737E6;}
	.st11{fill:#FFD6C0;}
	.st12{fill:#F4CD27;}
	.st13{fill:#DB8E28;}
	.st14{fill:#EFA726;}
</style>
<g id="BACKGROUND" class="st0">
	<rect class="st1" width="500" height="500"/>
</g>
<g id="OBJECTS">
	<rect x="114.64" y="128.14" class="st2" width="277.07" height="253.29"/>
	<g>
		<g>
			<g>
				<circle class="st3" cx="234.41" cy="268.2" r="17.78"/>
			</g>
			<g>
				<circle class="st4" cx="234.41" cy="268.2" r="15.09"/>
			</g>
			<g>
				<path class="st5" d="M242.31,255.32c1.5,2.35,2.37,5.13,2.37,8.13c0,8.33-6.75,15.09-15.09,15.09c-2.89,0-5.6-0.82-7.89-2.23
					c2.68,4.19,7.37,6.96,12.71,6.96c8.33,0,15.09-6.75,15.09-15.09C249.5,262.74,246.62,257.98,242.31,255.32z"/>
			</g>
			<g>
				<path class="st6" d="M221.97,269.58c0-7.36,5.96-13.32,13.32-13.32c4.3,0,8.12,2.04,10.56,5.2c-2.3-3.99-6.61-6.68-11.55-6.68
					c-7.36,0-13.32,5.96-13.32,13.32c0,3.06,1.03,5.87,2.76,8.12C222.61,274.27,221.97,272,221.97,269.58z"/>
			</g>
		</g>
		<g id="LkW7Tg.tif_00000039125187028283970090000016723641191310999201_">
			<g>
				<path class="st7" d="M231.69,277.92c0-0.72,0-1.45,0-2.17c0-0.21,0-0.21-0.2-0.21c-1.3,0-2.61,0-3.91,0
					c-0.22,0-0.23,0-0.23-0.22c0-0.54,0-1.09,0-1.63c0-0.2,0.01-0.21,0.21-0.21c0.28,0,0.57,0,0.85-0.02
					c0.4-0.04,0.61-0.23,0.64-0.64c0.02-0.24,0.02-0.49,0.02-0.73c0-2.6,0-5.2,0-7.81c0-0.23-0.01-0.45-0.03-0.68
					c-0.02-0.36-0.26-0.59-0.63-0.63c-0.3-0.03-0.6-0.03-0.9-0.03c-0.14,0-0.18-0.05-0.18-0.18c0-0.57,0.01-1.14,0-1.71
					c0-0.15,0.06-0.18,0.2-0.18c1.31,0,2.62,0,3.93,0c0.22,0,0.22,0,0.22-0.22c0-0.66,0-1.31,0-1.97c0-0.16,0.05-0.21,0.21-0.2
					c0.56,0.01,1.13,0.01,1.69,0c0.16,0,0.2,0.06,0.2,0.21c-0.01,0.67,0,1.33-0.01,2c0,0.15,0.05,0.2,0.2,0.19
					c0.29-0.01,0.59,0,0.88,0c0.21,0,0.21,0,0.21-0.2c0-0.65,0-1.29,0-1.94c0-0.25,0-0.25,0.26-0.25c0.53,0,1.07,0,1.6,0
					c0.23,0,0.23,0,0.23,0.23c0,0.69,0,1.38,0,2.06c0,0.15,0.06,0.21,0.2,0.22c0.96,0.11,1.83,0.44,2.55,1.09
					c0.35,0.31,0.61,0.69,0.79,1.12c0.4,0.97,0.34,1.92-0.16,2.84c-0.37,0.66-0.92,1.13-1.6,1.47c-0.2,0.1-0.4,0.17-0.6,0.29
					c0.25,0.08,0.5,0.16,0.74,0.24c0.55,0.19,1.04,0.47,1.44,0.88c0.51,0.53,0.83,1.16,0.93,1.9c0.19,1.45-0.34,2.61-1.45,3.51
					c-0.76,0.62-1.67,0.92-2.63,1.04c-0.16,0.02-0.21,0.07-0.21,0.23c0.01,0.77,0,1.54,0,2.31c-0.69,0-1.39,0-2.08,0
					c0-0.07-0.01-0.13-0.01-0.2c0-0.66-0.01-1.32,0-1.99c0-0.16-0.05-0.2-0.2-0.2c-0.26,0.01-0.53,0-0.79,0
					c-0.33,0-0.29-0.03-0.29,0.29c0,0.7-0.01,1.4-0.01,2.09C233.08,277.92,232.38,277.92,231.69,277.92z M232.74,270.88
					C232.74,270.88,232.74,270.88,232.74,270.88c0.01,0.41,0,0.82,0.01,1.23c0,0.24-0.02,0.48,0.03,0.71
					c0.05,0.22,0.15,0.3,0.37,0.32c0.55,0.05,1.1,0.03,1.64,0.02c0.45-0.01,0.91-0.04,1.35-0.16c1.42-0.39,1.89-2.03,1.2-3.1
					c-0.32-0.5-0.84-0.7-1.4-0.81c-0.33-0.06-0.67-0.07-1-0.08c-0.7-0.03-1.4-0.01-2.09-0.02c-0.08,0-0.12,0.03-0.12,0.12
					C232.74,269.7,232.74,270.29,232.74,270.88z M232.74,265.04c0,0.52,0.01,1.04,0,1.57c0,0.16,0.05,0.2,0.21,0.2
					c0.37-0.01,0.73-0.01,1.1,0c0.6,0.01,1.19-0.02,1.77-0.13c0.86-0.15,1.4-0.65,1.52-1.43c0.12-0.75-0.21-1.46-0.95-1.74
					c-0.46-0.18-0.95-0.2-1.43-0.22c-0.68-0.02-1.35,0-2.03-0.01c-0.15,0-0.2,0.05-0.19,0.2C232.75,264,232.74,264.52,232.74,265.04
					z"/>
			</g>
		</g>
	</g>
	<g>
		<g>
			<g>
				<circle class="st3" cx="258.41" cy="276.93" r="17.78"/>
			</g>
			<g>
				<circle class="st4" cx="258.41" cy="276.93" r="15.09"/>
			</g>
			<g>
				<path class="st5" d="M266.3,264.05c1.5,2.35,2.37,5.13,2.37,8.13c0,8.33-6.75,15.09-15.09,15.09c-2.89,0-5.6-0.82-7.89-2.23
					c2.68,4.19,7.37,6.96,12.71,6.96c8.33,0,15.09-6.75,15.09-15.09C273.5,271.47,270.62,266.71,266.3,264.05z"/>
			</g>
			<g>
				<path class="st6" d="M245.96,278.31c0-7.36,5.96-13.32,13.32-13.32c4.3,0,8.12,2.04,10.56,5.2c-2.3-3.99-6.61-6.68-11.55-6.68
					c-7.36,0-13.32,5.96-13.32,13.32c0,3.06,1.03,5.87,2.76,8.12C246.61,282.99,245.96,280.73,245.96,278.31z"/>
			</g>
		</g>
		<g id="LkW7Tg.tif">
			<g>
				<path class="st7" d="M255.69,286.65c0-0.72,0-1.45,0-2.17c0-0.21,0-0.21-0.2-0.21c-1.3,0-2.61,0-3.91,0
					c-0.22,0-0.23,0-0.23-0.22c0-0.54,0-1.09,0-1.63c0-0.2,0.01-0.21,0.21-0.21c0.28,0,0.57,0,0.85-0.02
					c0.4-0.04,0.61-0.23,0.64-0.64c0.02-0.24,0.02-0.49,0.02-0.73c0-2.6,0-5.2,0-7.81c0-0.23-0.01-0.45-0.03-0.68
					c-0.02-0.36-0.26-0.59-0.63-0.63c-0.3-0.03-0.6-0.03-0.9-0.03c-0.14,0-0.18-0.05-0.18-0.18c0-0.57,0.01-1.14,0-1.71
					c0-0.15,0.06-0.18,0.2-0.18c1.31,0,2.62,0,3.93,0c0.22,0,0.22,0,0.22-0.22c0-0.66,0-1.31,0-1.97c0-0.16,0.05-0.21,0.21-0.2
					c0.56,0.01,1.13,0.01,1.69,0c0.16,0,0.2,0.06,0.2,0.21c-0.01,0.67,0,1.33-0.01,2c0,0.15,0.05,0.2,0.2,0.19
					c0.29-0.01,0.59,0,0.88,0c0.21,0,0.21,0,0.21-0.2c0-0.65,0-1.29,0-1.94c0-0.25,0-0.25,0.26-0.25c0.53,0,1.07,0,1.6,0
					c0.23,0,0.23,0,0.23,0.23c0,0.69,0,1.38,0,2.06c0,0.15,0.06,0.21,0.2,0.22c0.96,0.11,1.83,0.44,2.55,1.09
					c0.35,0.31,0.61,0.69,0.79,1.12c0.4,0.97,0.34,1.92-0.16,2.84c-0.37,0.66-0.92,1.13-1.6,1.47c-0.2,0.1-0.4,0.17-0.6,0.29
					c0.25,0.08,0.5,0.16,0.74,0.24c0.55,0.19,1.04,0.47,1.44,0.88c0.51,0.53,0.83,1.16,0.93,1.9c0.19,1.45-0.34,2.61-1.45,3.51
					c-0.76,0.62-1.67,0.92-2.63,1.04c-0.16,0.02-0.21,0.07-0.21,0.23c0.01,0.77,0,1.54,0,2.31c-0.69,0-1.39,0-2.08,0
					c0-0.07-0.01-0.13-0.01-0.2c0-0.66-0.01-1.32,0-1.99c0-0.16-0.05-0.2-0.2-0.2c-0.26,0.01-0.53,0-0.79,0
					c-0.33,0-0.29-0.03-0.29,0.29c0,0.7-0.01,1.4-0.01,2.09C257.07,286.65,256.38,286.65,255.69,286.65z M256.73,279.61
					C256.73,279.61,256.74,279.61,256.73,279.61c0.01,0.41,0,0.82,0.01,1.23c0,0.24-0.02,0.48,0.03,0.71
					c0.05,0.22,0.15,0.3,0.37,0.32c0.55,0.05,1.1,0.03,1.64,0.02c0.45-0.01,0.91-0.04,1.35-0.16c1.42-0.39,1.89-2.03,1.2-3.1
					c-0.32-0.5-0.84-0.7-1.4-0.81c-0.33-0.06-0.67-0.07-1-0.08c-0.7-0.03-1.4-0.01-2.09-0.02c-0.08,0-0.12,0.03-0.12,0.12
					C256.73,278.43,256.73,279.02,256.73,279.61z M256.74,273.77c0,0.52,0.01,1.04,0,1.57c0,0.16,0.05,0.2,0.21,0.2
					c0.37-0.01,0.73-0.01,1.1,0c0.6,0.01,1.19-0.02,1.77-0.13c0.86-0.15,1.4-0.65,1.52-1.43c0.12-0.75-0.21-1.46-0.95-1.74
					c-0.46-0.18-0.95-0.2-1.43-0.22c-0.68-0.02-1.35,0-2.03-0.01c-0.15,0-0.2,0.05-0.19,0.2
					C256.74,272.72,256.74,273.25,256.74,273.77z"/>
			</g>
		</g>
	</g>
	<g>
		<g>
			<g>
				<g>
					<rect x="183.61" y="277.71" class="st8" width="24.15" height="23.06"/>
					<path class="st8" d="M199.66,280.4l14.89-5.79c1.15-0.45,2.42-0.49,3.6-0.11l33.14,10.54v29.52c0,0.4-0.39,0.67-0.77,0.54
						l-40.91-14.32h-13.89V280.4H199.66z"/>
					<path class="st8" d="M270.71,296.61h-19.46c-3.21,0-5.81-2.6-5.81-5.81v0c0-3.21,2.6-5.81,5.81-5.81h19.46
						c3.21,0,5.81,2.6,5.81,5.81v0C276.53,294,273.92,296.61,270.71,296.61z"/>
					<path class="st8" d="M303.15,307.13l-19.22,3.07c-3.17,0.51-6.15-1.65-6.66-4.82v0c-0.51-3.17,1.65-6.15,4.82-6.66l19.22-3.07
						c3.17-0.51,6.15,1.65,6.66,4.82l0,0C308.48,303.65,306.32,306.63,303.15,307.13z"/>
					<path class="st8" d="M290.26,305.08l-19.3,2.54c-3.18,0.42-6.1-1.82-6.52-5.01l0,0c-0.42-3.18,1.82-6.1,5.01-6.52l19.3-2.54
						c3.18-0.42,6.1,1.82,6.52,5.01v0C295.69,301.74,293.44,304.66,290.26,305.08z"/>
					<path class="st8" d="M252.56,315.16l47.35-7.48l-15.97-11.07l-32.64-1.97l-10.65-1.5v17.81l9.46,3.93
						C250.88,315.19,251.73,315.29,252.56,315.16z"/>
					<polygon class="st9" points="274.18,295.46 252.68,296.37 240.64,293.13 252.22,297.76 					"/>
					<path class="st9" d="M294.7,296.71l-35.54,4.06C259.16,300.77,272.82,297.74,294.7,296.71z"/>
				</g>
				<rect x="137.58" y="268.59" class="st10" width="46.03" height="39.28"/>
				<rect x="183.61" y="274.24" class="st2" width="4.69" height="29.93"/>
			</g>
			<path class="st11" d="M269.88,293.81l-0.59-6.44l4.43,0.12c1.95,0.9,2.19,3.56,0.44,4.8L269.88,293.81z"/>
		</g>
	</g>
	<g>
		<g>
			<g>
				<g>
					<ellipse class="st12" cx="258.74" cy="199.5" rx="18.82" ry="18.73"/>
					<ellipse class="st13" cx="258.74" cy="199.5" rx="14.7" ry="14.63"/>
					<ellipse class="st14" cx="258.74" cy="199.5" rx="14.01" ry="13.94"/>
					<path class="st12" d="M255.69,205.09v-0.06c0.66-0.32,1.16-0.77,1.51-1.33c0.35-0.57,0.53-1.33,0.53-2.27
						c0-0.54-0.04-1.05-0.13-1.51c0-0.03-0.01-0.05-0.02-0.08h5.55V198h-5.99c-0.06-0.26-0.12-0.52-0.17-0.79
						c-0.09-0.46-0.13-0.95-0.13-1.48c0-0.99,0.34-1.74,1.03-2.26c0.69-0.52,1.64-0.78,2.85-0.78c0.72,0,1.39,0.06,2,0.17
						c0.61,0.11,1.12,0.26,1.54,0.43v-2.58c-0.38-0.17-0.93-0.32-1.64-0.45c-0.71-0.13-1.49-0.2-2.34-0.2
						c-2.03,0-3.66,0.47-4.87,1.42c-1.21,0.95-1.82,2.3-1.82,4.07c0,0.51,0.05,1.03,0.15,1.55c0.06,0.3,0.12,0.6,0.19,0.9h-2.73
						v1.83h3.17c0.02,0.11,0.05,0.22,0.07,0.33c0.1,0.48,0.15,0.93,0.15,1.35c0,1.01-0.27,1.83-0.81,2.48
						c-0.54,0.64-1.38,1.05-2.52,1.23v2.53h13.85v-2.66H255.69z"/>
				</g>
				<g>
					<ellipse class="st12" cx="234.19" cy="209.79" rx="18.82" ry="18.73"/>
					<ellipse class="st13" cx="234.19" cy="209.79" rx="14.7" ry="14.63"/>
					<ellipse class="st14" cx="234.19" cy="209.79" rx="14.01" ry="13.94"/>
					<path class="st12" d="M232.14,205.22c0.54-0.5,1.19-0.87,1.95-1.11c0.75-0.24,1.59-0.36,2.51-0.36c0.4,0,0.83,0.02,1.29,0.05
						c0.46,0.03,0.83,0.08,1.11,0.14v-2.64c-0.28-0.08-0.66-0.15-1.12-0.19c-0.46-0.05-0.91-0.07-1.36-0.07
						c-1.34,0-2.57,0.18-3.7,0.54c-1.13,0.36-2.11,0.9-2.94,1.62c-0.83,0.72-1.48,1.63-1.95,2.73c-0.19,0.45-0.34,0.92-0.45,1.43
						h-2.48v1.34h2.28c-0.03,0.35-0.04,0.7-0.04,1.07v0.02c0,0.35,0.01,0.69,0.04,1.02h-2.27v1.34h2.47
						c0.11,0.53,0.27,1.03,0.46,1.49c0.46,1.1,1.11,2.01,1.95,2.73c0.83,0.72,1.81,1.27,2.94,1.63c1.13,0.36,2.36,0.54,3.7,0.54
						c0.44,0,0.9-0.02,1.36-0.07c0.46-0.05,0.83-0.11,1.12-0.19v-2.65c-0.28,0.07-0.65,0.12-1.11,0.15
						c-0.46,0.03-0.89,0.05-1.29,0.05c-0.92,0-1.76-0.12-2.51-0.36c-0.75-0.24-1.4-0.61-1.95-1.11c-0.54-0.5-0.96-1.13-1.26-1.88
						c-0.04-0.11-0.08-0.22-0.12-0.33h6.83v-1.34h-7.1c-0.03-0.32-0.05-0.65-0.05-1v-0.02c0-0.38,0.02-0.75,0.06-1.1h7.09v-1.34
						h-6.8c0.03-0.08,0.06-0.16,0.09-0.24C231.18,206.35,231.59,205.72,232.14,205.22z"/>
				</g>
				<g>
					
						<rect x="293.84" y="209.96" transform="matrix(-1 -1.224647e-16 1.224647e-16 -1 611.2733 442.4652)" class="st8" width="23.6" height="22.54"/>
					<path class="st8" d="M301.76,212.59l-14.55-5.66c-1.12-0.44-2.36-0.48-3.51-0.11l-32.39,10.29v28.85
						c0,0.39,0.38,0.66,0.75,0.53l39.98-13.99h13.57v-19.91H301.76z"/>
					<path class="st8" d="M232.33,228.43h19.02c3.14,0,5.68-2.54,5.68-5.68v0c0-3.14-2.54-5.68-5.68-5.68h-19.02
						c-3.14,0-5.68,2.54-5.68,5.68v0C226.64,225.88,229.19,228.43,232.33,228.43z"/>
					<path class="st8" d="M200.63,238.72l18.78,3c3.1,0.5,6.01-1.62,6.51-4.71v0c0.5-3.1-1.62-6.01-4.71-6.51l-18.78-3
						c-3.1-0.5-6.01,1.62-6.51,4.71v0C195.42,235.31,197.53,238.22,200.63,238.72z"/>
					<path class="st8" d="M213.22,236.7l18.86,2.48c3.11,0.41,5.96-1.78,6.37-4.89v0c0.41-3.11-1.78-5.96-4.89-6.37l-18.86-2.48
						c-3.11-0.41-5.96,1.78-6.37,4.89v0C207.92,233.44,210.11,236.3,213.22,236.7z"/>
					<path class="st8" d="M250.07,246.56l-46.27-7.31l15.61-10.82l31.9-1.92l10.41-1.47v17.4l-9.25,3.84
						C251.71,246.59,250.88,246.69,250.07,246.56z"/>
					<polygon class="st9" points="228.94,227.31 249.95,228.2 261.71,225.03 250.4,229.56 					"/>
					<path class="st9" d="M208.88,228.53l34.73,3.97C243.61,232.5,230.26,229.53,208.88,228.53z"/>
				</g>
				
					<rect x="317.44" y="201.05" transform="matrix(-1 -1.224647e-16 1.224647e-16 -1 679.8506 440.4807)" class="st10" width="44.98" height="38.38"/>
				
					<rect x="312.85" y="206.57" transform="matrix(-1 -1.224647e-16 1.224647e-16 -1 630.2903 442.3965)" class="st2" width="4.58" height="29.25"/>
			</g>
			<path class="st11" d="M233.06,225.79l0.59-6.44l-4.43,0.12c-1.95,0.9-2.19,3.56-0.44,4.8L233.06,225.79z"/>
		</g>
	</g>
</g>
<g id="DESIGNED_BY_FREEPIK">
	<g>
	</g>
	<g>
	</g>
	<g>
	</g>
	<g>
	</g>
	<g>
	</g>
	<g>
	</g>
	<g>
	</g>
	<g>
	</g>
	<g>
	</g>
	<g>
	</g>
	<g>
	</g>
	<g>
	</g>
	<g>
	</g>
	<g>
	</g>
	<g>
	</g>
</g>
</svg>
