<svg width="23" height="23" viewBox="0 0 23 23" fill="none" xmlns="http://www.w3.org/2000/svg">
<path d="M18.4791 3.10156H4.38228C3.63691 3.10156 3.03223 3.70625 3.03223 4.45161V18.5484C3.03223 19.2938 3.63691 19.8984 4.38228 19.8984H18.4791C19.2244 19.8984 19.8291 19.2938 19.8291 18.5484V4.45161C19.8291 3.70625 19.2244 3.10156 18.4791 3.10156ZM18.4791 18.5547C9.077 18.5526 4.37598 18.5505 4.37598 18.5484C4.37808 9.14634 4.38018 4.44531 4.38228 4.44531C13.7843 4.44741 18.4854 4.44951 18.4854 4.45161C18.4833 13.8537 18.4812 18.5547 18.4791 18.5547ZM5.52236 9.39829H8.0146V17.4146H5.52236V9.39829ZM6.76953 8.3023C7.56528 8.3023 8.21406 7.65562 8.21406 6.85776C8.21406 6.66807 8.1767 6.48022 8.1041 6.30497C8.03151 6.12971 7.92511 5.97046 7.79097 5.83633C7.65683 5.70219 7.49759 5.59579 7.32233 5.52319C7.14707 5.4506 6.95923 5.41323 6.76953 5.41323C6.57983 5.41323 6.39199 5.4506 6.21673 5.52319C6.04147 5.59579 5.88223 5.70219 5.74809 5.83633C5.61396 5.97046 5.50755 6.12971 5.43496 6.30497C5.36236 6.48022 5.325 6.66807 5.325 6.85776C5.3229 7.65562 5.96958 8.3023 6.76953 8.3023ZM12.0668 13.4484C12.0668 12.4028 12.2663 11.3908 13.5618 11.3908C14.8383 11.3908 14.8572 12.5855 14.8572 13.5156V17.4146H17.3474V13.018C17.3474 10.8596 16.8813 9.19883 14.3596 9.19883C13.1481 9.19883 12.3356 9.8644 12.0018 10.4943H11.9682V9.39829H9.57671V17.4146H12.0668V13.4484Z" fill="white"/>
</svg>
