<svg width="92" height="92" viewBox="0 0 92 92" fill="none" xmlns="http://www.w3.org/2000/svg">
<rect x="0.591797" y="0.691895" width="91.2951" height="91.2951" rx="7.30361" fill="#004EEB" fill-opacity="0.1"/>
<path d="M55.3565 34.6821H37.3096C35.6484 34.6821 34.3018 36.0287 34.3018 37.6899V55.7368C34.3018 57.3979 35.6484 58.7446 37.3096 58.7446H55.3565C57.0176 58.7446 58.3643 57.3979 58.3643 55.7368V37.6899C58.3643 36.0287 57.0176 34.6821 55.3565 34.6821Z" stroke="#004EEB" stroke-width="3" stroke-linecap="round" stroke-linejoin="round"/>
<path d="M34.3014 50.7239H30.291" stroke="#004EEB" stroke-width="3" stroke-linecap="round" stroke-linejoin="round"/>
<path d="M62.3748 50.7239H58.3643" stroke="#004EEB" stroke-width="3" stroke-linecap="round" stroke-linejoin="round"/>
<path d="M34.3014 40.6979H30.291" stroke="#004EEB" stroke-width="3" stroke-linecap="round" stroke-linejoin="round"/>
<path d="M62.3748 40.6979H58.3643" stroke="#004EEB" stroke-width="3" stroke-linecap="round" stroke-linejoin="round"/>
<path d="M41.3193 62.7551V58.7446" stroke="#004EEB" stroke-width="3" stroke-linecap="round" stroke-linejoin="round"/>
<path d="M41.3193 34.6821V30.6716" stroke="#004EEB" stroke-width="3" stroke-linecap="round" stroke-linejoin="round"/>
<path d="M51.3467 62.7551V58.7446" stroke="#004EEB" stroke-width="3" stroke-linecap="round" stroke-linejoin="round"/>
<path d="M51.3467 34.6821V30.6716" stroke="#004EEB" stroke-width="3" stroke-linecap="round" stroke-linejoin="round"/>
<path d="M50.3438 50.7239H44.3281" stroke="#004EEB" stroke-width="3" stroke-linecap="round" stroke-linejoin="round"/>
<path d="M16.2549 19.3089C16.2549 17.8323 17.4519 16.6353 18.9285 16.6353H28.2861C29.7627 16.6353 30.9597 17.8323 30.9597 19.3089V28.6665C30.9597 30.1431 29.7627 31.3401 28.2861 31.3401H18.9285C17.4519 31.3401 16.2549 30.1431 16.2549 28.6665V19.3089Z" stroke="#004EEB" stroke-width="3" stroke-linejoin="round"/>
<path d="M23.6073 25.3244C22.869 25.3244 22.2705 24.7259 22.2705 23.9876C22.2705 23.2493 22.869 22.6508 23.6073 22.6508" stroke="#004EEB" stroke-width="3" stroke-linecap="round" stroke-linejoin="round"/>
<path d="M23.6074 25.3244C24.3457 25.3244 24.9442 24.7259 24.9442 23.9876C24.9442 23.2493 24.3457 22.6508 23.6074 22.6508" stroke="#004EEB" stroke-width="3" stroke-linecap="round" stroke-linejoin="round"/>
<path d="M69.0585 25.3244C68.32 25.3244 67.7217 24.7259 67.7217 23.9876C67.7217 23.2493 68.32 22.6508 69.0585 22.6508" stroke="#004EEB" stroke-width="3" stroke-linecap="round" stroke-linejoin="round"/>
<path d="M69.0586 25.3244C69.7969 25.3244 70.3952 24.7259 70.3952 23.9876C70.3952 23.2493 69.7969 22.6508 69.0586 22.6508" stroke="#004EEB" stroke-width="3" stroke-linecap="round" stroke-linejoin="round"/>
<path d="M23.6073 70.7759C22.869 70.7759 22.2705 70.1776 22.2705 69.4393C22.2705 68.7008 22.869 68.1025 23.6073 68.1025" stroke="#004EEB" stroke-width="3" stroke-linecap="round" stroke-linejoin="round"/>
<path d="M23.6074 70.7759C24.3457 70.7759 24.9442 70.1776 24.9442 69.4393C24.9442 68.7008 24.3457 68.1025 23.6074 68.1025" stroke="#004EEB" stroke-width="3" stroke-linecap="round" stroke-linejoin="round"/>
<path d="M69.0585 70.7759C68.32 70.7759 67.7217 70.1776 67.7217 69.4393C67.7217 68.7008 68.32 68.1025 69.0585 68.1025" stroke="#004EEB" stroke-width="3" stroke-linecap="round" stroke-linejoin="round"/>
<path d="M69.0586 70.7759C69.7969 70.7759 70.3952 70.1776 70.3952 69.4393C70.3952 68.7008 69.7969 68.1025 69.0586 68.1025" stroke="#004EEB" stroke-width="3" stroke-linecap="round" stroke-linejoin="round"/>
<path d="M61.7061 19.3089C61.7061 17.8323 62.9032 16.6353 64.3797 16.6353H73.7373C75.2139 16.6353 76.411 17.8323 76.411 19.3089V28.6665C76.411 30.1431 75.2139 31.3401 73.7373 31.3401H64.3797C62.9032 31.3401 61.7061 30.1431 61.7061 28.6665V19.3089Z" stroke="#004EEB" stroke-width="3" stroke-linejoin="round"/>
<path d="M30.96 23.9875H61.7066" stroke="#004EEB" stroke-width="3" stroke-linecap="round" stroke-linejoin="round"/>
<path d="M30.96 69.4393H61.7066" stroke="#004EEB" stroke-width="3" stroke-linecap="round" stroke-linejoin="round"/>
<path d="M16.2549 64.7603C16.2549 63.2837 17.4519 62.0866 18.9285 62.0866H28.2861C29.7627 62.0866 30.9597 63.2837 30.9597 64.7603V74.1179C30.9597 75.5944 29.7627 76.7915 28.2861 76.7915H18.9285C17.4519 76.7915 16.2549 75.5944 16.2549 74.1179V64.7603Z" stroke="#004EEB" stroke-width="3" stroke-linejoin="round"/>
<path d="M61.7061 64.7603C61.7061 63.2837 62.9032 62.0866 64.3797 62.0866H73.7373C75.2139 62.0866 76.411 63.2837 76.411 64.7603V74.1179C76.411 75.5944 75.2139 76.7915 73.7373 76.7915H64.3797C62.9032 76.7915 61.7061 75.5944 61.7061 74.1179V64.7603Z" stroke="#004EEB" stroke-width="3" stroke-linejoin="round"/>
<path d="M23.6074 31.3402V62.0869" stroke="#004EEB" stroke-width="3" stroke-linecap="round" stroke-linejoin="round"/>
<path d="M69.0586 31.3402V62.0869" stroke="#004EEB" stroke-width="3" stroke-linecap="round" stroke-linejoin="round"/>
</svg>
