<svg width="92" height="93" viewBox="0 0 92 93" fill="none" xmlns="http://www.w3.org/2000/svg">
<rect x="0.591797" y="0.972" width="91.2951" height="91.2951" rx="7.30361" fill="#004EEB" fill-opacity="0.1"/>
<path d="M55.8477 57.176C57.2843 58.7797 59.3714 59.789 61.694 59.789C66.0275 59.789 69.5406 56.2759 69.5406 51.9424C69.5406 51.4978 69.5037 51.0617 69.4326 50.6373" stroke="#004EEB" stroke-width="2" stroke-linecap="round" stroke-linejoin="round"/>
<path d="M74.7711 76.7913C74.7711 73.3228 73.3935 69.9964 70.9407 67.5439C68.4883 65.0915 65.1619 63.7136 61.6936 63.7136C57.1311 63.7136 52.2803 67.0501 50.7422 68.93" stroke="#004EEB" stroke-width="2" stroke-linecap="round" stroke-linejoin="round"/>
<path d="M49.4986 16.635H46.7043C46.0109 16.635 45.3456 16.9105 44.855 17.4011C44.3645 17.8916 44.0889 18.5568 44.0889 19.2505V39.7561C44.0889 40.4498 44.3645 41.1151 44.855 41.6056C45.3456 42.0962 46.0109 42.3715 46.7043 42.3715H51.9354V48.8452C51.9332 48.9693 51.9663 49.0915 52.0309 49.1976C52.0954 49.3035 52.1889 49.389 52.3002 49.444C52.4118 49.4987 52.5364 49.5208 52.6598 49.5074C52.7834 49.494 52.9004 49.4456 52.9975 49.3683L61.7436 42.3715H72.8597C73.5534 42.3715 74.2187 42.0962 74.7092 41.6056C75.1998 41.1151 75.4754 40.4498 75.4754 39.7561L75.4751 19.2505C75.4751 18.5568 75.1998 17.8916 74.7092 17.4011C74.2187 16.9105 73.5534 16.635 72.8597 16.635H70.1773" stroke="#004EEB" stroke-width="2" stroke-linecap="round" stroke-linejoin="round"/>
<path d="M59.1729 16.6351V19.2506" stroke="#004EEB" stroke-width="2" stroke-linecap="round" stroke-linejoin="round"/>
<path d="M59.1835 34.9439L59.1729 37.5594" stroke="#004EEB" stroke-width="2" stroke-linecap="round" stroke-linejoin="round"/>
<path d="M65.711 23.1739C65.711 24.2144 65.2976 25.2123 64.562 25.9481C63.8262 26.6839 62.8282 27.0972 61.7877 27.0972H55.249V19.2506H61.7877C62.8282 19.2506 63.8262 19.664 64.562 20.3997C65.2976 21.1355 65.711 22.1334 65.711 23.1739Z" stroke="#004EEB" stroke-width="2" stroke-linecap="round" stroke-linejoin="round"/>
<path d="M65.711 31.0206C65.711 32.0611 65.2976 33.059 64.562 33.7947C63.8262 34.5305 62.8282 34.9438 61.7877 34.9438H55.249V27.0972H61.7877C62.8282 27.0972 63.8262 27.5106 64.562 28.2464C65.2976 28.9821 65.711 29.98 65.711 31.0206Z" stroke="#004EEB" stroke-width="2" stroke-linecap="round" stroke-linejoin="round"/>
<path d="M43.3848 49.7502C41.3797 52.6552 38.0273 54.5589 34.2303 54.5589C28.0911 54.5589 23.1143 49.5821 23.1143 43.4431C23.1143 37.3038 28.0911 32.327 34.2303 32.327C35.2269 32.327 36.1928 32.4581 37.1119 32.7041" stroke="#004EEB" stroke-width="2" stroke-linecap="round" stroke-linejoin="round"/>
<path d="M15.9219 76.7908C15.9219 71.9351 17.8508 67.2781 21.2844 63.8446C24.7179 60.411 29.3748 58.4822 34.2306 58.4822C39.0864 58.4822 43.7433 60.411 47.1769 63.8446C50.6104 67.2781 52.5393 71.9351 52.5393 76.7908" stroke="#004EEB" stroke-width="2" stroke-linecap="round" stroke-linejoin="round"/>
</svg>
