<svg width="23" height="23" viewBox="0 0 23 23" fill="none" xmlns="http://www.w3.org/2000/svg">
<path fill-rule="evenodd" clip-rule="evenodd" d="M8.31771 4.9585C6.70975 4.9585 5.40625 6.262 5.40625 7.86995V15.0366C5.40625 16.6446 6.70975 17.9481 8.31771 17.9481H15.4844C17.0923 17.9481 18.3958 16.6446 18.3958 15.0366V7.86995C18.3958 6.262 17.0923 4.9585 15.4844 4.9585H8.31771ZM4.0625 7.86995C4.0625 5.51987 5.96762 3.61475 8.31771 3.61475H15.4844C17.8345 3.61475 19.7396 5.51987 19.7396 7.86995V15.0366C19.7396 17.3867 17.8345 19.2918 15.4844 19.2918H8.31771C5.96762 19.2918 4.0625 17.3867 4.0625 15.0366V7.86995ZM11.901 9.43766C10.7878 9.43766 9.88542 10.3401 9.88542 11.4533C9.88542 12.5665 10.7878 13.4689 11.901 13.4689C13.0142 13.4689 13.9167 12.5665 13.9167 11.4533C13.9167 10.3401 13.0142 9.43766 11.901 9.43766ZM8.54167 11.4533C8.54167 9.59796 10.0457 8.09391 11.901 8.09391C13.7564 8.09391 15.2604 9.59796 15.2604 11.4533C15.2604 13.3086 13.7564 14.8127 11.901 14.8127C10.0457 14.8127 8.54167 13.3086 8.54167 11.4533ZM16.6042 7.42204C16.6042 7.05097 16.3034 6.75016 15.9323 6.75016C15.5612 6.75016 15.2604 7.05097 15.2604 7.42204V7.42304C15.2604 7.7941 15.5612 8.09491 15.9323 8.09491C16.3034 8.09491 16.6042 7.7941 16.6042 7.42304V7.42204Z" fill="white"/>
</svg>
