<svg width="44" height="43" viewBox="0 0 44 43" fill="none" xmlns="http://www.w3.org/2000/svg">
<g clip-path="url(#clip0_482_62)">
<path fill-rule="evenodd" clip-rule="evenodd" d="M28.1872 15.0261C28.6753 14.5379 29.4668 14.5379 29.955 15.0261L35.2583 20.3294C35.7464 20.8175 35.7464 21.609 35.2583 22.0971L29.955 27.4004C29.4668 27.8886 28.6753 27.8886 28.1872 27.4004C27.699 26.9123 27.699 26.1208 28.1872 25.6327L32.6066 21.2133L28.1872 16.7938C27.699 16.3057 27.699 15.5142 28.1872 15.0261Z" fill="#004EEB"/>
<path fill-rule="evenodd" clip-rule="evenodd" d="M8.37617 21.2133C8.37617 20.5229 8.93581 19.9633 9.62617 19.9633L34.3749 19.9633C35.0653 19.9633 35.6249 20.5229 35.6249 21.2133C35.6249 21.9036 35.0653 22.4633 34.3749 22.4633L9.62617 22.4633C8.93581 22.4633 8.37617 21.9036 8.37617 21.2133Z" fill="#004EEB"/>
</g>
<defs>
<clipPath id="clip0_482_62">
<rect width="30" height="30" fill="white" transform="translate(0.787109 21.2133) rotate(-45)"/>
</clipPath>
</defs>
</svg>
