<svg width="23" height="23" viewBox="0 0 23 23" fill="none" xmlns="http://www.w3.org/2000/svg">
<path d="M18.4683 7.01639C18.4002 6.74944 18.2067 6.54787 17.9854 6.48606C17.593 6.37587 15.6858 6.12504 11.6545 6.12504C7.62329 6.12504 5.71696 6.37587 5.3219 6.48606C5.10331 6.54698 4.90981 6.74854 4.84083 7.01639C4.74319 7.39623 4.48787 8.98723 4.48787 11.5C4.48787 14.012 4.74319 15.603 4.84083 15.9846C4.90892 16.2506 5.10242 16.4522 5.32279 16.5131C5.71696 16.6242 7.6224 16.875 11.6536 16.875C15.6849 16.875 17.5921 16.6242 17.9863 16.514C18.2049 16.4531 18.3984 16.2515 18.4674 15.9837C18.5659 15.6039 18.8203 14.0084 18.8203 11.5C18.8203 8.99171 18.5659 7.39712 18.4683 7.01639ZM20.2035 6.57117C20.6129 8.16754 20.6129 11.5 20.6129 11.5C20.6129 11.5 20.6129 14.8325 20.2035 16.4289C19.9759 17.3113 19.3103 18.0056 18.4674 18.2403C16.9364 18.6667 11.6536 18.6667 11.6536 18.6667C11.6536 18.6667 6.3745 18.6667 4.84083 18.2403C3.99427 18.002 3.32956 17.3086 3.10471 16.4289C2.69531 14.8325 2.69531 11.5 2.69531 11.5C2.69531 11.5 2.69531 8.16754 3.10471 6.57117C3.33225 5.68877 3.99785 4.9945 4.84083 4.75979C6.3754 4.33337 11.6545 4.33337 11.6545 4.33337C11.6545 4.33337 16.9364 4.33337 18.4674 4.75979C19.313 4.99808 19.9786 5.69146 20.2035 6.57117ZM9.86288 14.6355V8.36462L15.2379 11.5L9.86288 14.6355Z" fill="white"/>
</svg>
