<svg width="92" height="93" viewBox="0 0 92 93" fill="none" xmlns="http://www.w3.org/2000/svg">
<rect x="0.258789" y="0.972" width="91.2951" height="91.2951" rx="7.30361" fill="#004EEB" fill-opacity="0.1"/>
<path d="M74.0728 34.68C72.9654 34.68 72.0674 33.7822 72.0674 32.6747C72.0674 31.5673 72.9654 30.6695 74.0728 30.6695C75.1802 30.6695 76.0779 31.5673 76.0779 32.6747C76.0779 33.7822 75.1802 34.68 74.0728 34.68Z" stroke="#004EEB" stroke-width="2.73885" stroke-linejoin="round"/>
<path d="M17.9271 27.3407C16.8196 27.3407 15.9219 26.443 15.9219 25.3355C15.9219 24.2281 16.8196 23.3303 17.9271 23.3303C19.0345 23.3303 19.9323 24.2281 19.9323 25.3355C19.9323 26.443 19.0345 27.3407 17.9271 27.3407Z" stroke="#004EEB" stroke-width="2.73885" stroke-linejoin="round"/>
<path d="M68.7278 71.4433C67.6204 71.4433 66.7227 70.5453 66.7227 69.4379C66.7227 68.3305 67.6204 67.4328 68.7278 67.4328C69.8355 67.4328 70.7332 68.3305 70.7332 69.4379C70.7332 70.5453 69.8355 71.4433 68.7278 71.4433Z" stroke="#004EEB" stroke-width="2.73885" stroke-linejoin="round"/>
<path d="M23.2718 71.4433C22.1644 71.4433 21.2666 70.5453 21.2666 69.4379C21.2666 68.3305 22.1644 67.4328 23.2718 67.4328C24.3793 67.4328 25.277 68.3305 25.277 69.4379C25.277 70.5453 24.3793 71.4433 23.2718 71.4433Z" stroke="#004EEB" stroke-width="2.73885" stroke-linejoin="round"/>
<path d="M60.1729 56.0702H66.0548C67.5313 56.0702 68.7284 57.267 68.7284 58.7438V61.4172" stroke="#004EEB" stroke-width="2.73885" stroke-linecap="round" stroke-linejoin="round"/>
<path d="M74.0728 41.3639V44.0376C74.0728 45.5142 72.8757 46.711 71.3992 46.711H60.1699" stroke="#004EEB" stroke-width="2.73885" stroke-linecap="round" stroke-linejoin="round"/>
<path d="M31.828 53.3965H25.9461C24.4695 53.3965 23.2725 54.5936 23.2725 56.0701V61.4172" stroke="#004EEB" stroke-width="2.73885" stroke-linecap="round" stroke-linejoin="round"/>
<path d="M17.9268 34.6826V40.0299C17.9268 41.5066 19.1238 42.7034 20.6004 42.7034H31.8295" stroke="#004EEB" stroke-width="2.73885" stroke-linecap="round" stroke-linejoin="round"/>
<path d="M45.9998 51.0589C45.4461 51.0589 44.9971 50.6099 44.9971 50.0562C44.9971 49.5025 45.4461 49.0535 45.9998 49.0535" stroke="#004EEB" stroke-width="2.73885"/>
<path d="M46 51.0589C46.5537 51.0589 47.0027 50.6099 47.0027 50.0562C47.0027 49.5025 46.5537 49.0535 46 49.0535" stroke="#004EEB" stroke-width="2.73885"/>
<path d="M56.0256 38.0249V32.0092C56.0185 29.3523 54.96 26.8063 53.0813 24.9275C51.2027 23.0488 48.6565 21.9902 45.9998 21.9832C43.343 21.991 40.7973 23.0498 38.9187 24.9283C37.0402 26.8069 35.9814 29.3525 35.9736 32.0092V38.0249" stroke="#004EEB" stroke-width="2.73885" stroke-linecap="round" stroke-linejoin="round"/>
<path d="M56.0254 38.025H35.9733C33.7584 38.025 31.9629 39.8205 31.9629 42.0355V58.077C31.9629 60.2921 33.7584 62.0875 35.9733 62.0875H56.0254C58.2402 62.0875 60.0359 60.2921 60.0359 58.077V42.0355C60.0359 39.8205 58.2402 38.025 56.0254 38.025Z" stroke="#004EEB" stroke-width="2.73885" stroke-linecap="round" stroke-linejoin="round"/>
</svg>
