<svg width="93" height="92" viewBox="0 0 93 92" fill="none" xmlns="http://www.w3.org/2000/svg">
<rect x="0.925781" y="0.691895" width="91.2951" height="91.2951" rx="7.30361" fill="#004EEB" fill-opacity="0.1"/>
<path d="M66.7887 21.045C64.2227 18.4517 61.1699 16.3905 57.8056 14.9795C54.4412 13.5685 50.8314 12.8356 47.1832 12.8228H46.9727C39.5756 12.8228 32.4815 15.7612 27.251 20.9917C22.0205 26.2222 19.082 33.3163 19.082 40.7134V56.0259C19.082 57.6213 19.7158 59.1514 20.844 60.2796C21.9721 61.4077 23.5022 62.0415 25.0977 62.0415H29.4727C31.0681 62.0415 32.5982 61.4077 33.7263 60.2796C34.8545 59.1514 35.4883 57.6213 35.4883 56.0259V45.0884C35.4883 43.4929 34.8545 41.9628 33.7263 40.8347C32.5982 39.7065 31.0681 39.0728 29.4727 39.0728H22.418C22.7377 34.3462 24.4132 29.8119 27.2436 26.0131C30.0741 22.2142 33.9396 19.3117 38.3772 17.6533C42.8148 15.9948 47.6364 15.6506 52.2646 16.6619C56.8927 17.6733 61.1313 19.9973 64.4727 23.3556C68.6546 27.5645 71.163 33.1508 71.5301 39.0728H64.4727C62.8772 39.0728 61.3471 39.7065 60.219 40.8347C59.0908 41.9628 58.457 43.4929 58.457 45.0884V56.0259C58.457 57.6213 59.0908 59.1514 60.219 60.2796C61.3471 61.4077 62.8772 62.0415 64.4727 62.0415H68.8477C70.4431 62.0415 71.9732 61.4077 73.1013 60.2796C74.2295 59.1514 74.8633 57.6213 74.8633 56.0259V40.7134C74.877 37.065 74.1709 33.4498 72.7853 30.0748C71.3997 26.6998 69.3619 23.6313 66.7887 21.045ZM29.4727 42.354C30.1979 42.354 30.8934 42.6421 31.4062 43.1549C31.9189 43.6677 32.207 44.3632 32.207 45.0884V56.0259C32.207 56.7511 31.9189 57.4466 31.4062 57.9594C30.8934 58.4722 30.1979 58.7603 29.4727 58.7603H25.0977C24.3725 58.7603 23.677 58.4722 23.1642 57.9594C22.6514 57.4466 22.3633 56.7511 22.3633 56.0259V42.354H29.4727ZM71.582 56.0259C71.582 56.7511 71.2939 57.4466 70.7812 57.9594C70.2684 58.4722 69.5729 58.7603 68.8477 58.7603H64.4727C63.7475 58.7603 63.052 58.4722 62.5392 57.9594C62.0264 57.4466 61.7383 56.7511 61.7383 56.0259V45.0884C61.7383 44.3632 62.0264 43.6677 62.5392 43.1549C63.052 42.6421 63.7475 42.354 64.4727 42.354H71.582V56.0259Z" fill="#004EEB"/>
<path d="M46.9726 73.7133C53.0478 73.7133 57.9727 68.7884 57.9727 62.7134C57.9727 56.6382 53.0478 51.7133 46.9726 51.7133C40.8975 51.7133 35.9727 56.6382 35.9727 62.7134C35.9727 68.7884 40.8975 73.7133 46.9726 73.7133Z" stroke="#004EEB" stroke-width="3" stroke-linecap="round" stroke-linejoin="round"/>
<path d="M35.9727 62.7134V42.0884" stroke="#004EEB" stroke-width="3" stroke-linecap="round" stroke-linejoin="round"/>
<path d="M31.3896 46.6726L35.973 42.0893L40.5563 46.6726" stroke="#004EEB" stroke-width="3" stroke-linecap="round" stroke-linejoin="round"/>
<path d="M57.9727 62.7134V83.3384" stroke="#004EEB" stroke-width="3" stroke-linecap="round" stroke-linejoin="round"/>
<path d="M53.3896 78.7549L57.9731 83.3384L62.5563 78.7549" stroke="#004EEB" stroke-width="3" stroke-linecap="round" stroke-linejoin="round"/>
<path d="M44.2227 67.5424V57.8844H48.3477C49.077 57.8844 49.7764 58.1388 50.2922 58.5916C50.8078 59.0444 51.0977 59.6586 51.0977 60.2989C51.0977 60.9392 50.8078 61.5533 50.2922 62.0061C49.7764 62.4589 49.077 62.7134 48.3477 62.7134C49.077 62.7134 49.7764 62.9678 50.2922 63.4206C50.8078 63.8734 51.0977 64.4875 51.0977 65.1278C51.0977 65.7683 50.8078 66.3824 50.2922 66.8352C49.7764 67.288 49.077 67.5424 48.3477 67.5424H44.2227Z" stroke="#004EEB" stroke-width="3" stroke-linecap="round" stroke-linejoin="round"/>
<path d="M44.2227 62.7134H48.3477" stroke="#004EEB" stroke-width="3" stroke-linecap="round" stroke-linejoin="round"/>
<path d="M46.9727 57.8845V55.47" stroke="#004EEB" stroke-width="3" stroke-linecap="round" stroke-linejoin="round"/>
<path d="M46.9727 67.5422V69.9569" stroke="#004EEB" stroke-width="3" stroke-linecap="round" stroke-linejoin="round"/>
</svg>
