<svg width="92" height="92" viewBox="0 0 92 92" fill="none" xmlns="http://www.w3.org/2000/svg">
<rect x="0.258789" y="0.691895" width="91.2951" height="91.2951" rx="7.30361" fill="#004EEB" fill-opacity="0.1"/>
<path d="M29.5938 42.6116C29.5938 46.9628 31.3223 51.1358 34.399 54.2126C37.4758 57.2894 41.6488 59.0179 46 59.0179C50.3512 59.0179 54.5242 57.2894 57.601 54.2126C60.6777 51.1358 62.4063 46.9628 62.4063 42.6116C62.4063 38.2604 60.6777 34.0874 57.601 31.0107C54.5242 27.9339 50.3512 26.2054 46 26.2054C41.6488 26.2054 37.4758 27.9339 34.399 31.0107C31.3223 34.0874 29.5938 38.2604 29.5938 42.6116Z" stroke="#004EEB" stroke-width="2" stroke-linecap="round" stroke-linejoin="round"/>
<path d="M41.8984 50.8148V34.4085H48.0508C49.1386 34.4085 50.1818 34.8406 50.951 35.6098C51.7202 36.379 52.1523 37.4223 52.1523 38.5101C52.1523 39.5979 51.7202 40.6411 50.951 41.4103C50.1818 42.1795 49.1386 42.6116 48.0508 42.6116C49.1386 42.6116 50.1818 43.0438 50.951 43.813C51.7202 44.5821 52.1523 45.6254 52.1523 46.7132C52.1523 47.801 51.7202 48.8442 50.951 49.6134C50.1818 50.3826 49.1386 50.8148 48.0508 50.8148H41.8984Z" stroke="#004EEB" stroke-width="2" stroke-linecap="round" stroke-linejoin="round"/>
<path d="M41.8984 42.6116H48.0508" stroke="#004EEB" stroke-width="2" stroke-linecap="round" stroke-linejoin="round"/>
<path d="M46 34.4085V32.3577" stroke="#004EEB" stroke-width="2" stroke-linecap="round" stroke-linejoin="round"/>
<path d="M46 50.8148V52.8655" stroke="#004EEB" stroke-width="2" stroke-linecap="round" stroke-linejoin="round"/>
<path d="M39.8477 71.3226C39.8477 72.9543 40.4958 74.5191 41.6496 75.6729C42.8034 76.8267 44.3683 77.4749 46 77.4749C47.6317 77.4749 49.1966 76.8267 50.3504 75.6729C51.5042 74.5191 52.1523 72.9543 52.1523 71.3226C52.1523 69.6909 51.5042 68.126 50.3504 66.9722C49.1966 65.8184 47.6317 65.1702 46 65.1702C44.3683 65.1702 42.8034 65.8184 41.6496 66.9722C40.4958 68.126 39.8477 69.6909 39.8477 71.3226Z" stroke="#004EEB" stroke-width="2" stroke-linecap="round" stroke-linejoin="round"/>
<path d="M15.2383 22.1038C15.2383 23.7355 15.8865 25.3004 17.0403 26.4542C18.194 27.608 19.7589 28.2562 21.3906 28.2562C23.0223 28.2562 24.5872 27.608 25.741 26.4542C26.8948 25.3004 27.543 23.7355 27.543 22.1038C27.543 20.4721 26.8948 18.9072 25.741 17.7535C24.5872 16.5997 23.0223 15.9515 21.3906 15.9515C19.7589 15.9515 18.194 16.5997 17.0403 17.7535C15.8865 18.9072 15.2383 20.4721 15.2383 22.1038Z" stroke="#004EEB" stroke-width="2" stroke-linecap="round" stroke-linejoin="round"/>
<path d="M64.457 22.1038C64.457 23.7355 65.1052 25.3004 66.259 26.4542C67.4128 27.608 68.9777 28.2562 70.6094 28.2562C72.2411 28.2562 73.806 27.608 74.9597 26.4542C76.1135 25.3004 76.7617 23.7355 76.7617 22.1038C76.7617 20.4721 76.1135 18.9072 74.9597 17.7535C73.806 16.5997 72.2411 15.9515 70.6094 15.9515C68.9777 15.9515 67.4128 16.5997 66.259 17.7535C65.1052 18.9072 64.457 20.4721 64.457 22.1038Z" stroke="#004EEB" stroke-width="2" stroke-linecap="round" stroke-linejoin="round"/>
<path d="M46 65.1702V59.0179" stroke="#004EEB" stroke-width="2" stroke-linecap="round" stroke-linejoin="round"/>
<path d="M26.1182 26.0413L33.3971 32.1089" stroke="#004EEB" stroke-width="2" stroke-linecap="round" stroke-linejoin="round"/>
<path d="M65.8814 26.0413L58.6025 32.1089" stroke="#004EEB" stroke-width="2" stroke-linecap="round" stroke-linejoin="round"/>
</svg>
