<svg width="23" height="23" viewBox="0 0 23 23" fill="none" xmlns="http://www.w3.org/2000/svg">
<path d="M20.7378 2.92508C20.4828 2.71291 20.175 2.57387 19.8472 2.52276C19.5194 2.47165 19.1838 2.51038 18.8763 2.63483L2.82208 9.11619C2.47884 9.25746 2.18667 9.49975 1.98433 9.81092C1.78199 10.1221 1.67905 10.4874 1.68916 10.8585C1.69926 11.2295 1.82194 11.5887 2.04092 11.8884C2.2599 12.1881 2.56483 12.4141 2.91524 12.5365L6.16264 13.6661L7.97222 19.6521C7.99703 19.7319 8.03291 19.8079 8.07883 19.8778C8.08599 19.8886 8.09585 19.8958 8.10302 19.9074C8.15581 19.9809 8.21955 20.0458 8.29204 20.1C8.31227 20.1158 8.33319 20.1308 8.35475 20.1448C8.4396 20.2011 8.53355 20.2423 8.63245 20.2666L8.6441 20.2675L8.64947 20.2702C8.70934 20.2822 8.77026 20.2882 8.83133 20.2881L8.84745 20.2854C8.9392 20.2839 9.03016 20.2682 9.1171 20.2389C9.1377 20.2317 9.15472 20.2209 9.17443 20.212C9.23947 20.1853 9.30111 20.151 9.35808 20.1099C9.40345 20.0713 9.44884 20.0328 9.49424 19.9943L11.9148 17.322L15.525 20.1188C15.8428 20.3663 16.2339 20.5009 16.6367 20.5013C17.0589 20.5008 17.468 20.3552 17.7955 20.0889C18.1231 19.8225 18.349 19.4516 18.4356 19.0384L21.3587 4.68987C21.4248 4.36707 21.4019 4.03236 21.2926 3.72153C21.1832 3.41069 20.9915 3.1354 20.7378 2.92508ZM9.18608 13.951C9.06201 14.0748 8.97725 14.2325 8.94241 14.4043L8.6647 15.7516L7.96237 13.4287L11.6039 11.5323L9.18608 13.951ZM16.6233 18.7025L12.3564 15.3969C12.1779 15.2591 11.954 15.1937 11.7294 15.2136C11.5047 15.2335 11.2959 15.3373 11.1444 15.5044L10.3686 16.3599L10.6427 15.0278L16.9879 8.6826C17.1384 8.53113 17.2299 8.33086 17.2458 8.11789C17.2618 7.90492 17.2011 7.69327 17.0747 7.52109C16.9484 7.34891 16.7647 7.22754 16.5567 7.17885C16.3488 7.13016 16.1303 7.15736 15.9407 7.25554L6.83452 11.9963L3.49754 10.7753L19.6037 4.33333L16.6233 18.7025Z" fill="white"/>
</svg>
