<svg width="93" height="93" viewBox="0 0 93 93" fill="none" xmlns="http://www.w3.org/2000/svg">
<rect x="0.925781" y="0.972" width="91.2951" height="91.2951" rx="7.30361" fill="#004EEB" fill-opacity="0.1"/>
<path d="M23.5811 41.0318V73.1152" stroke="#004EEB" stroke-width="3" stroke-linecap="round" stroke-linejoin="round"/>
<path d="M23.5781 43.7054H40.9566M77.0503 49.0527V70.4416H23.5781" stroke="#004EEB" stroke-width="3" stroke-linecap="round" stroke-linejoin="round"/>
<path d="M30.9297 57.0738C30.9297 58.6692 31.5635 60.1993 32.6916 61.3275C33.8198 62.4556 35.3499 63.0894 36.9453 63.0894C38.5408 63.0894 40.0709 62.4556 41.199 61.3275C42.3272 60.1993 42.9609 58.6692 42.9609 57.0738C42.9609 55.4783 42.3272 53.9482 41.199 52.8201C40.0709 51.6919 38.5408 51.0581 36.9453 51.0581C35.3499 51.0581 33.8198 51.6919 32.6916 52.8201C31.5635 53.9482 30.9297 55.4783 30.9297 57.0738Z" stroke="#004EEB" stroke-width="3"/>
<path d="M30.9346 70.4413V75.7886" stroke="#004EEB" stroke-width="3" stroke-linecap="round" stroke-linejoin="round"/>
<path d="M37.6172 75.7886V70.4413" stroke="#004EEB" stroke-width="3" stroke-linecap="round" stroke-linejoin="round"/>
<path d="M52.3203 75.7886V70.4413" stroke="#004EEB" stroke-width="3" stroke-linecap="round" stroke-linejoin="round"/>
<path d="M60.3408 75.7886V70.4413" stroke="#004EEB" stroke-width="3" stroke-linecap="round" stroke-linejoin="round"/>
<path d="M68.3613 75.7886V70.4413" stroke="#004EEB" stroke-width="3" stroke-linecap="round" stroke-linejoin="round"/>
<path d="M52.3203 59.7472H68.3618" stroke="#004EEB" stroke-width="3" stroke-linecap="round" stroke-linejoin="round"/>
<path d="M23.5785 58.4103H16.8945V47.7159H23.5785" stroke="#004EEB" stroke-width="3" stroke-linecap="round" stroke-linejoin="round"/>
<path d="M61.0086 49.721C69.8679 49.721 77.05 42.5389 77.05 33.6795C77.05 24.8199 69.8679 17.6378 61.0086 17.6378C52.1489 17.6378 44.9668 24.8199 44.9668 33.6795C44.9668 42.5389 52.1489 49.721 61.0086 49.721Z" stroke="#004EEB" stroke-width="3" stroke-linecap="round" stroke-linejoin="round"/>
<path d="M56.998 40.7218V26.6373H63.0137C64.0773 26.6373 65.0973 27.0083 65.8495 27.6686C66.6014 28.329 67.0242 29.2246 67.0242 30.1584C67.0242 31.0923 66.6014 31.9879 65.8495 32.6483C65.0973 33.3086 64.0773 33.6796 63.0137 33.6796C64.0773 33.6796 65.0973 34.0505 65.8495 34.7109C66.6014 35.3712 67.0242 36.2668 67.0242 37.2007C67.0242 38.1346 66.6014 39.0302 65.8495 39.6905C65.0973 40.3508 64.0773 40.7218 63.0137 40.7218H56.998Z" stroke="#004EEB" stroke-width="3" stroke-linecap="round" stroke-linejoin="round"/>
<path d="M56.998 33.6795H63.0137" stroke="#004EEB" stroke-width="3" stroke-linecap="round" stroke-linejoin="round"/>
<path d="M61.0088 26.6373V23.1162" stroke="#004EEB" stroke-width="3" stroke-linecap="round" stroke-linejoin="round"/>
<path d="M61.0088 40.7218V44.243" stroke="#004EEB" stroke-width="3" stroke-linecap="round" stroke-linejoin="round"/>
</svg>
