<svg width="44" height="43" viewBox="0 0 44 43" fill="none" xmlns="http://www.w3.org/2000/svg">
<g clip-path="url(#clip0_479_5867)">
<path fill-rule="evenodd" clip-rule="evenodd" d="M28.1872 15.5261C28.6753 15.0379 29.4668 15.0379 29.955 15.5261L35.2583 20.8294C35.7464 21.3175 35.7464 22.109 35.2583 22.5971L29.955 27.9004C29.4668 28.3886 28.6753 28.3886 28.1872 27.9004C27.699 27.4123 27.699 26.6208 28.1872 26.1327L32.6066 21.7133L28.1872 17.2938C27.699 16.8057 27.699 16.0142 28.1872 15.5261Z" fill="white"/>
<path fill-rule="evenodd" clip-rule="evenodd" d="M8.37617 21.7133C8.37617 21.0229 8.93581 20.4633 9.62617 20.4633L34.3749 20.4633C35.0653 20.4633 35.6249 21.0229 35.6249 21.7133C35.6249 22.4036 35.0653 22.9633 34.3749 22.9633L9.62617 22.9633C8.93581 22.9633 8.37617 22.4036 8.37617 21.7133Z" fill="white"/>
</g>
<defs>
<clipPath id="clip0_479_5867">
<rect width="30" height="30" fill="white" transform="translate(0.787109 21.7133) rotate(-45)"/>
</clipPath>
</defs>
</svg>
