<svg width="169" height="169" viewBox="0 0 169 169" fill="none" xmlns="http://www.w3.org/2000/svg">
<path d="M70.5177 119.684L41.8215 95.1455C38.4415 92.2387 38.0359 87.1687 40.9427 83.7887L65.4815 55.0925L100.295 84.8703L70.5177 119.684Z" fill="#004EEB"/>
<path d="M122.571 37.2462L98.9106 17L69.1328 51.814L84.4442 64.9284L91.6098 56.546L88.5678 53.9434L90.9676 41.0656L103.305 36.6716L113.242 45.1554L110.842 58.0332L98.505 62.4272L95.463 59.8246L88.2974 68.207L103.947 81.5918L124.193 57.9318C129.466 51.7802 128.722 42.519 122.571 37.2462Z" fill="#004EEB"/>
<path d="M122.772 104.069L103.438 87.5406L89.5462 103.765L97.4554 110.525L100.058 107.483L112.936 109.882L117.33 122.219L108.846 132.157L95.9682 129.757L91.5742 117.42L94.1768 114.378L86.2676 107.618L73.6602 122.355L108.474 152.132L125.002 132.799C132.337 124.281 131.323 111.403 122.772 104.069Z" fill="#004EEB"/>
</svg>
